<?xml version="1.0" encoding="utf-8"?>
<!-- Generator: Adobe Illustrator 25.3.0, SVG Export Plug-In . SVG Version: 6.00 Build 0)  -->
<svg version="1.1" id="Livello_1" xmlns="http://www.w3.org/2000/svg" xmlns:xlink="http://www.w3.org/1999/xlink" x="0px" y="0px"
	 viewBox="0 0 1139.74 674.04" style="enable-background:new 0 0 1139.74 674.04;" xml:space="preserve">
<style type="text/css">
	.st0{fill:#E80800;}
</style>
<g>
	<g>
		<path class="st0" d="M924.66,187.39v-13.6h38.6v13.6H924.66z M962.26,137.39v-12.4h-12.6v-13.6h13.6v12.4h12.6v13.6H962.26z
			 M1050.86,199.99v12.4h-12.6v50h-12.4v12.6h-13.6v-12.6h-12.6v-50h-12.4v-12.4h-12.6v-38.6h12.6v-12.6h12.4v-12.4h38.6v12.4h12.6
			v12.6h12.4v38.6H1050.86z M1049.66,162.39h-12.4v-12.4h-36.4v12.4h-12.6v36.4h12.6v12.6h12.4v25h11.4v-25h12.6v-12.6h12.4V162.39z
			 M1012.26,124.99v-38.6h13.6v38.6H1012.26z M1075.86,124.99v12.4h-13.6v-13.6h12.4v-12.4h13.6v13.6H1075.86z M1074.66,187.39
			v-13.6h38.6v13.6H1074.66z"/>
	</g>
	<g>
		<path class="st0" d="M927.18,55.51c-25.69-15.89-55.97-20.4-85.43-24.03c-28.43-3.51-57.04-5.59-85.67-6.28
			c-57.45-1.39-115,2.86-171.68,12.29c-56.81,9.45-112.72,24.23-166.79,44.05c-53.94,19.77-106.09,44.49-155.39,73.97
			c-48.9,29.24-95.81,63.01-137.58,101.84c-40.5,37.65-77,82.2-95.61,134.92c-9.11,25.8-14.9,54.94-10.56,82.26
			c2.16,13.61,7.66,26.51,16.93,36.8c9.69,10.77,22.64,18.61,35.33,25.33c52.42,27.73,113.58,32.93,171.85,28.79
			c65.36-4.64,129.9-19.56,192.62-38.02c32.39-9.54,64.46-20.16,96.36-31.21c29.24-10.13,59.11-19.65,86.9-33.41
			c13.21-6.54,25.68-14.3,37.18-23.53c3.65-2.93,0.36-8.32-3.54-8.54c-36.68-2.07-72.78,9.28-107.44,19.9
			c-34.39,10.53-68.32,22.56-101.67,36.03c-33.46,13.51-66.36,28.43-98.54,44.77c-26.29,13.35-56.79,26.92-73.56,52.44
			c-8.26,12.56-13.35,29.08-4.14,42.5c8.29,12.08,21.83,19.74,35.51,24.12c14.26,4.57,29.4,5.92,44.27,6.69
			c17.94,0.93,35.92,1.04,53.87,0.41c71.97-2.53,143.06-16.94,212.01-37.18c70.09-20.58,138.25-47.11,205.95-74.4
			c8.39-3.38,16.77-6.78,25.15-10.17c5.89-2.39,3.31-12.06-2.66-9.64c-64.74,26.24-129.65,52.31-196.16,73.79
			c-65.92,21.28-133.68,38.19-202.76,44.85c-33.84,3.27-68.06,4.26-102.01,1.95c-14.26-0.97-28.94-2.87-42.16-8.59
			c-12.76-5.53-28.91-16.85-25.58-32.73c6-28.59,37.38-44.54,60.79-56.87c30.45-16.04,61.57-30.81,93.25-44.26
			c32.13-13.65,64.87-25.89,98.05-36.76c16.22-5.31,32.54-10.3,48.97-14.94c17.2-4.85,34.66-9.38,52.47-11.25
			c8.78-0.92,17.59-1.16,26.4-0.66c-1.18-2.85-2.36-5.69-3.54-8.54c-23.13,18.56-50.92,29.89-78.56,39.89
			c-30.13,10.9-60.44,21.35-90.92,31.25c-61.95,20.12-125.04,37.44-189.57,46.9c-57.24,8.4-117.4,10.97-173.43-5.84
			c-13.66-4.1-26.93-9.36-39.57-15.98c-12.48-6.54-25.2-14.07-34.59-24.77c-18.88-21.52-16.56-54.06-11.2-80.19
			c10.92-53.27,42.61-99.48,79.72-138.14c38.23-39.83,82.82-73.86,129.05-103.86c46.99-30.49,96.88-56.61,148.73-77.84
			c51.52-21.1,104.96-37.53,159.43-49.04c54.83-11.59,110.69-18.14,166.71-19.4c27.81-0.63,55.66,0.03,83.41,2.02
			c28.21,2.02,57.07,4.47,84.62,11.09c14,3.36,27.47,8.27,39.75,15.86C927.63,67.54,932.65,58.89,927.18,55.51L927.18,55.51z"/>
	</g>
</g>
</svg>
