<?xml version="1.0" encoding="utf-8"?>
<!-- Generator: Adobe Illustrator 25.3.0, SVG Export Plug-In . SVG Version: 6.00 Build 0)  -->
<svg version="1.1" id="Livello_1" xmlns="http://www.w3.org/2000/svg" xmlns:xlink="http://www.w3.org/1999/xlink" x="0px" y="0px"
	 viewBox="0 0 1920 1080" style="enable-background:new 0 0 1920 1080;" xml:space="preserve">
<style type="text/css">
	.st0{fill:#E80800;}
</style>
<g>
	<g>
		<g>
			<path class="st0" d="M1094.35,364.75c-23.91-8.56-50.92-18.52-63.53-42.4c-2.75-5.22-5.1-11.44-4.16-17.43
				c1.09-6.93,7.16-9.87,13.57-10.38c12.87-1.01,26.2,4.73,36.38,12.15c3.42,2.49,7.77-3.12,4.54-5.89
				c-6.23-5.34-8.06-13.46-8.87-21.33c-0.96-9.29,0.99-19.4,5.16-27.76c4.13-8.27,10.65-13.13,20.2-11.04
				c7.68,1.68,14.49,6.38,19.7,12.16c11.63,12.89,14.56,30.98,11.75,47.68c-0.75,4.48-1.89,8.89-3.3,13.2
				c-0.74,2.27-3.8,13.47-7.36,8.57c-2.21-3.03-1.86-8.98-1.64-12.52c0.32-5.08,1.63-10.06,3.3-14.85
				c6.69-19.09,20.04-34.97,32.83-50.27c3.08-3.68-2.2-9.01-5.3-5.3c-14.86,17.77-30.75,36.64-36.6,59.6
				c-2.22,8.72-4.28,23.68,3.47,30.49c8.54,7.49,15.26-4.42,17.65-11.14c7.56-21.26,8.3-46.47-5.32-65.52
				c-10.54-14.74-35.33-29.68-50.6-12.65c-7.91,8.82-11.45,22.21-11.67,33.81c-0.21,11.23,2.41,24.57,11.29,32.18
				c1.51-1.96,3.03-3.93,4.54-5.89c-11.79-8.6-27.78-14.89-42.6-12.92c-15.25,2.03-21.61,15.16-17.42,29.33
				c9.41,31.8,43.77,45.25,71.98,55.35C1096.91,373.61,1098.87,366.37,1094.35,364.75L1094.35,364.75z"/>
		</g>
	</g>
	<g>
		<g>
			<path class="st0" d="M1011.14,457.52c13.08,3.12,25.73-1.15,37.46-6.87c11.44-5.57,22.38-12.26,32.16-20.43
				c19.3-16.12,33.28-39.51,32.53-65.24c-0.14-4.82-7.64-4.84-7.5,0c0.69,23.3-11.84,44.04-29.08,58.87
				c-8.32,7.16-17.71,13.01-27.43,18.06c-11.03,5.74-23.48,11.39-36.15,8.37C1008.44,449.17,1006.44,456.4,1011.14,457.52
				L1011.14,457.52z"/>
		</g>
	</g>
	<g>
		<g>
			<path class="st0" d="M1159.28,375.58c0.54,37.97-12.75,75.42-37.35,104.39c-3.11,3.66,2.17,8.99,5.3,5.3
				c25.89-30.49,40.12-69.66,39.55-109.69C1166.71,370.76,1159.21,370.75,1159.28,375.58L1159.28,375.58z"/>
		</g>
	</g>
	<g>
		<g>
			<path class="st0" d="M1169.95,341.48c45.2-2.29,90.45,6.96,131.05,27.01c4.31,2.13,8.12-4.34,3.79-6.48
				c-41.76-20.63-88.29-30.39-134.83-28.04C1165.14,334.22,1165.12,341.72,1169.95,341.48L1169.95,341.48z"/>
		</g>
	</g>
	<g>
		<g>
			<path class="st0" d="M1161.38,378.85c59.97,2.65,119.98,4.31,180,4.97c4.83,0.05,4.83-7.45,0-7.5
				c-60.02-0.66-120.03-2.32-180-4.97C1156.55,371.14,1156.56,378.64,1161.38,378.85L1161.38,378.85z"/>
		</g>
	</g>
	<g>
		<g>
			<path class="st0" d="M1259.75,378.18c-10.97,14.57-18.24,32.42-10.44,50.13c1.94,4.41,8.4,0.6,6.48-3.79
				c-6.6-15,1.41-30.55,10.44-42.56C1269.13,378.11,1262.62,374.37,1259.75,378.18L1259.75,378.18z"/>
		</g>
	</g>
	<g>
		<g>
			<path class="st0" d="M1248.76,424.21c-39.09,10.09-80.93,35.35-83.79,80.01c-2.57,40.06,35.04,67.82,71.09,73.46
				c26.93,4.21,54.04-0.34,80.6-4.95c4.75-0.82,2.73-8.05-1.99-7.23c-38.72,6.71-82.99,13.76-116.9-11.36
				c-13.53-10.02-24.01-24.96-25.27-42.11c-1.39-18.89,7.28-37.37,20.37-50.63c15.59-15.8,36.73-24.5,57.88-29.96
				C1255.43,430.23,1253.45,423,1248.76,424.21L1248.76,424.21z"/>
		</g>
	</g>
	<g>
		<g>
			<path class="st0" d="M1342.21,502.84c13.28,2.96,19.76,16.05,19.03,28.84c-0.81,14.05-9.07,26.31-17.46,37.06
				c-2.93,3.76,2.34,9.11,5.3,5.3c10.32-13.23,20.17-28.29,19.71-45.77c-0.39-14.88-9.47-29.29-24.59-32.66
				C1339.5,494.56,1337.49,501.79,1342.21,502.84L1342.21,502.84z"/>
		</g>
	</g>
	<g>
		<g>
			<path class="st0" d="M1284.26,381.97c7.53,16.19,7.48,34.39,10.94,51.57c3.46,17.22,14.86,32.29,30.11,40.83
				c4.22,2.36,8-4.11,3.79-6.48c-15.9-8.91-25.19-24.31-27.55-42.14c-2.11-16.01-3.93-32.77-10.81-47.57
				C1288.7,373.81,1282.24,377.61,1284.26,381.97L1284.26,381.97z"/>
		</g>
	</g>
	<g>
		<g>
			<path class="st0" d="M1327.54,475.51c9.91,1.67,16.47,11.87,13.44,21.56c-1.44,4.62,5.79,6.59,7.23,1.99
				c4.15-13.28-4.85-28.45-18.67-30.79C1324.82,467.48,1322.79,474.71,1327.54,475.51L1327.54,475.51z"/>
		</g>
	</g>
	<g>
		<g>
			<path class="st0" d="M1312.56,570.35c1.8,7.95,9.13,14.96,17.67,14.17c7.3-0.67,15.26-5.23,19.44-11.24
				c2.76-3.97-3.74-7.73-6.48-3.79c-2.5,3.59-7.56,6.21-11.72,7.22c-5.8,1.41-10.44-2.86-11.69-8.36
				C1318.72,563.65,1311.49,565.64,1312.56,570.35L1312.56,570.35z"/>
		</g>
	</g>
	<g>
		<g>
			<path class="st0" d="M1131.64,322.52c-1.53,7.33-2.51,14.77-2.69,22.27c-0.12,5.03-0.81,11.87,3.76,15.29
				c11.32,8.48,14.86-13.72,14.19-20.39c-2.5,0-5,0-7.5,0c0.78,7.03,2.42,15.94,8.72,20.27c5.34,3.67,11.01,1.45,13.89-4.05
				c3.38-6.47,4.19-14.23,2.82-21.34c-0.99-5.11-4.5-15.28-11.51-11.25c-4.18,2.41-0.41,8.89,3.79,6.48
				c0.28-0.16,0.55-0.32,0.83-0.48c-0.96,0.13-1.93,0.25-2.89,0.38c1.87,0.51,2.7,7.48,2.84,9c0.33,3.6-0.09,7.25-1.24,10.68
				c-1.41,4.19-3.68,6.47-6.53,1.75c-1.97-3.28-2.79-7.69-3.2-11.43c-0.52-4.73-7.99-4.82-7.5,0c0.35,3.47,0.23,6.88-0.79,10.24
				c-0.34,1.12-0.64,4.56-1.77,2.86c-0.86-1.29-0.42-3.6-0.42-5.07c-0.01-7.82,0.85-15.55,2.45-23.2
				C1139.86,319.8,1132.63,317.79,1131.64,322.52L1131.64,322.52z"/>
		</g>
	</g>
	<g>
		<g>
			<path class="st0" d="M1007.71,455.68c6.82,20.29,20.04,38.98,38.35,50.44c20.52,12.85,43.17,10.01,63.97-0.58
				c4.3-2.19,0.51-8.66-3.79-6.48c-9.29,4.73-19.4,8.39-29.94,8.53c-10.06,0.13-19.53-3.36-27.86-8.85
				c-15.89-10.47-27.5-27.17-33.51-45.07C1013.41,449.13,1006.17,451.09,1007.71,455.68L1007.71,455.68z"/>
		</g>
	</g>
	<g>
		<g>
			<path class="st0" d="M1001.89,460.84c6.63,22.07,20.99,40.94,40.48,53.23c4.09,2.58,7.86-3.9,3.79-6.48
				c-17.82-11.24-30.97-28.57-37.03-48.75C1007.74,454.24,1000.5,456.2,1001.89,460.84L1001.89,460.84z"/>
		</g>
	</g>
	<g>
		<g>
			<path class="st0" d="M812.42,381.6c-13.05-13.43-26.37-27.18-35.01-43.99c-9.55-18.58-9.17-38.06-2.87-57.65
				c-1.84,0.75-3.67,1.49-5.51,2.24c16.27,7.96,29.34,20.11,38.8,35.52c7.98,13,14.06,27.18,23.53,39.23
				c10.08,12.83,23.44,20.2,39.57,22.51c17.35,2.48,35.77,0.26,52.37,6.81c18.72,7.38,31.61,24.54,43.22,40.16
				c2.85,3.83,9.36,0.1,6.48-3.79c-10.17-13.69-20.77-27.65-35.19-37.16c-15.27-10.07-32.71-11.15-50.44-12.08
				c-17.9-0.94-34.59-3.72-47.18-17.56c-10.61-11.67-16.77-26.67-24.77-40.08c-10.28-17.23-24.49-31.19-42.6-40.05
				c-2.23-1.09-4.73-0.19-5.51,2.24c-6.55,20.37-7.02,40.94,2.2,60.53c8.77,18.64,23.42,33.8,37.61,48.41
				C810.49,390.37,815.79,385.06,812.42,381.6L812.42,381.6z"/>
		</g>
	</g>
	<g>
		<g>
			<path class="st0" d="M767.02,352.61c-7.56,23.66,2.59,49.09,19.32,66.26c18.74,19.23,44.82,28.88,69.46,38.02
				c4.53,1.68,6.49-5.57,1.99-7.23c-22.54-8.36-46.21-17.08-63.96-33.93c-16.2-15.38-26.67-38.94-19.58-61.12
				C775.72,349.99,768.48,348.02,767.02,352.61L767.02,352.61z"/>
		</g>
	</g>
	<g>
		<g>
			<path class="st0" d="M773.41,428.33c-7.56,19.35,4.13,38.9,18.68,51.21c7.77,6.57,16.36,12.46,25.05,17.73
				c8.94,5.42,18.48,9.5,29.05,9.87c4.83,0.17,4.82-7.33,0-7.5c-9.23-0.33-17.48-4.13-25.27-8.85c-7.67-4.66-15.29-9.8-22.24-15.48
				c-13.19-10.79-24.94-27.31-18.04-44.98C782.4,425.82,775.15,423.87,773.41,428.33L773.41,428.33z"/>
		</g>
	</g>
	<g>
		<g>
			<path class="st0" d="M787.23,566.48c-3.88,23.5-3.24,48.78,8.7,70.02c11.36,20.2,31.74,33.09,52.81,41.38
				c47.41,18.65,103.55,18.09,148.33-7.45c22.32-12.73,41.26-31.2,53.73-53.73c2.34-4.23-4.13-8.01-6.48-3.79
				c-21.63,39.06-62.82,64-106.72,69.27c-24.34,2.92-49.16,0.38-72.6-6.64c-20.83-6.23-41.99-16.1-56.06-33.25
				c-16.84-20.54-18.64-48.58-14.48-73.81C795.24,563.75,788.01,561.72,787.23,566.48L787.23,566.48z"/>
		</g>
	</g>
	<g>
		<g>
			<path class="st0" d="M1044.56,619.39c19.11,10.35,43.69,9,61.03-4.41c17.09-13.21,24.73-36.03,20.03-56.95
				c-1.06-4.71-8.29-2.72-7.23,1.99c3.99,17.77-2.6,37.37-16.95,48.76c-14.9,11.82-36.54,13.1-53.09,4.14
				C1044.1,610.61,1040.31,617.09,1044.56,619.39L1044.56,619.39z"/>
		</g>
	</g>
	<g>
		<g>
			<path class="st0" d="M786.54,563.66c-28.64-0.2-57.26-1.81-85.73-4.94c-26.63-2.92-53.63-6.5-79.61-13.22
				c-11.41-2.95-22.68-6.71-33.15-12.17c-9.29-4.83-21.61-11.79-26.73-21.35c-1.03-1.91-2.41-4.83-1.28-6.97
				c1.32-2.53,5.31-2.49,7.75-2.75c6.95-0.74,13.96-1.1,20.95-1.2c12.78-0.19,25.59,0.59,38.25,2.39
				c28.88,4.11,56.9,13.29,82.61,27.07c-0.57-1.41-1.15-2.82-1.72-4.23c-1.92,4.75-14.6-1.13-17.5-2.14
				c-6.23-2.16-12.45-4.37-18.64-6.67c-13.28-4.95-26.41-10.35-39.06-16.77c-24.39-12.38-46.96-28.78-62.08-51.95
				c-0.45,1.71-0.9,3.42-1.35,5.13c8.07-4.51,18.42,0.18,26.45,2.68c9.43,2.93,18.81,6.01,28.14,9.24
				c18.08,6.26,35.96,13.06,53.63,20.41c36.17,15.04,71.34,32.44,105.35,51.88c4.2,2.4,7.98-4.08,3.79-6.48
				c-55.74-31.85-114.66-58.09-175.68-78.06c-8.19-2.68-16.44-5.6-24.82-7.65c-7.02-1.72-14.16-2.12-20.64,1.51
				c-1.71,0.95-2.44,3.46-1.35,5.13c17.25,26.44,43.42,44.62,71.58,57.98c14.33,6.8,29.15,12.52,44.08,17.84
				c9.46,3.37,29.64,13.95,35.32-0.08c0.59-1.47-0.39-3.52-1.72-4.23c-25.5-13.66-53.2-23.04-81.8-27.44
				c-13.59-2.09-27.33-3.16-41.09-3.06c-7,0.05-13.99,0.4-20.96,1.05c-5.43,0.51-11.84,0.74-15.31,5.65
				c-6.93,9.81,4.11,21.17,11.13,27.03c9.33,7.79,19.97,13.61,31.21,18.14c25.89,10.45,54.45,14.31,81.94,18.06
				c35.82,4.88,71.9,7.45,108.05,7.7C791.37,571.19,791.38,563.69,786.54,563.66L786.54,563.66z"/>
		</g>
	</g>
	<g>
		<g>
			<path class="st0" d="M829.89,664.01c-25.07,20.94-45.65,46.47-69.42,68.77c-11.68,10.95-24.19,21.1-38.25,28.88
				c-16.45,9.1-34.14,12.2-51.98,17.36c-17.39,5.03-34.54,14.29-41.27,32.09c-1.09,2.89,2.08,5.12,4.61,4.61
				c22.29-4.44,43.6-12.77,63.01-24.59c3.6-2.19,1.28-7.98-2.89-6.85c-19.63,5.32-36.2,19.27-44.53,37.87
				c-1.23,2.74,0.83,6.61,4.23,5.51c22.28-7.2,42.33-19.82,58.35-36.89c3.3-3.52-1.99-8.83-5.3-5.3
				c-15.15,16.14-33.97,28.16-55.04,34.97c1.41,1.84,2.82,3.67,4.23,5.51c7.58-16.92,22.12-29.56,40.05-34.42
				c-0.96-2.28-1.93-4.57-2.89-6.85c-18.91,11.51-39.51,19.52-61.22,23.84c1.54,1.54,3.08,3.08,4.61,4.61
				c6.46-17.09,25.18-24.14,41.45-28.32c16.8-4.32,33.05-8.18,48.35-16.65c27.42-15.17,48.99-38.68,70.34-61.15
				c12.43-13.08,24.98-26.09,38.85-37.67C838.9,666.22,833.57,660.94,829.89,664.01L829.89,664.01z"/>
		</g>
	</g>
	<g>
		<g>
			<path class="st0" d="M869.51,684.11c-27.03,31.2-60.59,55.39-94.6,78.37c-16.83,11.36-33.81,22.5-50.39,34.23
				c-8.18,5.79-16.26,11.74-24.17,17.9c-3.33,2.59-7.15,5.16-8.75,9.25c-1.07,2.74-1.06,6.89,1.79,8.66
				c3.53,2.19,10.7,0.62,14.52-0.17c5.15-1.07,10.11-3.16,14.7-5.71c9.83-5.46,18.25-13.21,26.28-20.97
				c3.02-2.92-0.91-8.22-4.54-5.89c-15.8,10.12-28.37,24.45-36.1,41.56c-1.47,3.26,1.63,7.13,5.13,5.13
				c26.21-14.99,49.92-34,70.22-56.35c3.24-3.57-2.05-8.88-5.3-5.3c-19.9,21.91-43.01,40.48-68.71,55.18
				c1.71,1.71,3.42,3.42,5.13,5.13c7.21-15.98,18.63-29.41,33.41-38.87c-1.51-1.96-3.03-3.93-4.54-5.89
				c-13.1,12.65-28.72,27.05-48.31,25.17c1.08,0.62,2.16,1.24,3.24,1.86c-1.43-2.98,13.33-12.23,15.63-13.94
				c6.01-4.48,12.1-8.85,18.24-13.14c12.08-8.45,24.36-16.63,36.6-24.84c24.15-16.19,48.28-32.57,70.5-51.39
				c12.61-10.68,24.49-22.17,35.32-34.66C877.96,685.78,872.68,680.45,869.51,684.11L869.51,684.11z"/>
		</g>
	</g>
</g>
</svg>
