<svg id="Livello_1" data-name="Livello 1" xmlns="http://www.w3.org/2000/svg" viewBox="0 0 555.38 477.1">
  <defs>
    <style>
      .cls-1 {
        fill: #ebdf00;
      }
    </style>
  </defs>
  <path class="cls-1" d="M1203.79,424.79c11.37-7.82,13-22.06,6.92-33.85-6.2-12.1-20.52-16.92-33.41-15.69-12.59,1.19-24.63,5.8-35.85,11.45a141.33,141.33,0,0,0-27.88,18.77,144.72,144.72,0,0,0-38.78,52.29c-10.33,23.95-15.48,51.21-8.71,76.88a75.89,75.89,0,0,0,20.2,35,64.35,64.35,0,0,0,36.87,17.82l-5.3-19.56A240.3,240.3,0,0,0,1051,611.25a245.63,245.63,0,0,0-49.26,62.15Q997,681.94,993,690.85c-3,6.78-6.51,14-8.17,21.25-2.08,9.13-.5,18.2,5.93,25.18,4.49,4.89,11.17,7.89,17.56,9.31,14.09,3.14,29.46,1,43.41-1.89a193.34,193.34,0,0,0,42.2-14.49c27.15-12.61,51.51-30.41,74.85-49q4.2-3.33,8.34-6.71l-17.54-10.21c-3.47,13-7,26-10.41,39-2,7.58-2.67,15.25,1,22.45a22,22,0,0,0,13.06,10.58c10.08,3.31,21.63-.25,30.8-4.62,10.86-5.18,21.27-11.66,31.58-17.85a746,746,0,0,0,62.31-41.76q15.75-11.73,30.92-24.22c.38-.32,2.82-2.8,3.31-2.75-.17,0-1.92,1.38-.65.53.53-.35,1-.72,1.58-1.06.91-.58,1.85-1.13,2.81-1.63.38-.2.78-.38,1.16-.58,1.93-1-2,.69-.13.05a31.14,31.14,0,0,1,3-.93,17,17,0,0,0,1.75-.36c-.21.08-2.7.14-1.1.21a8.83,8.83,0,0,0,1.36,0c1.33-.17-2.85-.53-1-.12,0,0,.92.31,1,.29-1.73-.79-2.12-.93-1.18-.42s.55.35-1-.74c.86.77-.37.42-.65-.94l.29.46c.35.69.36.66,0-.07l-.26-.57c.27,1.21.3,1.16.1-.13a8.89,8.89,0,0,1,.12,1.81,62.72,62.72,0,0,0,1.35,9.93,52,52,0,0,0,5.93,14.55c5.6,9.45,13.93,17.14,23.2,22.9,17.61,10.94,39.21,14.72,59.64,12.16,41.46-5.19,79.22-33.12,92.42-73.43,12.66-38.66.84-84.36-28.22-112.64a109,109,0,0,0-12.36-10.21c-4.46-3.23-11.89-.92-14.36,3.76-2.88,5.44-1,10.92,3.76,14.37l1.43,1c.64.48,1.49,1.6-.17-.14a29.6,29.6,0,0,0,2.44,2c1.87,1.59,3.68,3.26,5.41,5,1.48,1.49,2.92,3,4.3,4.62.77.88,1.52,1.77,2.25,2.68.29.36.56.76.87,1.1-1.87-2-.31-.39.06.11a99.14,99.14,0,0,1,7.34,11.54q1.59,2.93,3,6c.2.43.39.86.58,1.28.08.19,1,2.33.31.69s.2.51.28.7c.26.65.51,1.31.76,2a105.09,105.09,0,0,1,4,13.13c.5,2.18.94,4.36,1.31,6.56.07.47.15.93.22,1.39l.1.7c.13.93.14.93,0,0l-.1-.7c.06.47.12.93.17,1.4q.12,1.05.21,2.1a102.24,102.24,0,0,1,.34,13.33q-.15,3.51-.54,7c0,.46-.13.93-.17,1.39.22-2.69.19-1.34.09-.71-.23,1.39-.45,2.77-.72,4.15a92.12,92.12,0,0,1-3.51,12.85c-.39,1.1-.82,2.19-1.24,3.29-.67,1.75.2-.34.25-.55a8.62,8.62,0,0,1-.72,1.62q-1.53,3.38-3.34,6.63a133.72,133.72,0,0,1-7.35,11.18c1.74-2.51-.59.68-1,1.17q-1,1.21-2.07,2.4c-1.57,1.75-3.21,3.44-4.9,5.08s-3.26,3.05-5,4.5c-.81.68-1.63,1.36-2.46,2-.6.48-1.94,1.09.17-.13-.58.34-1.16.87-1.7,1.26a104.09,104.09,0,0,1-11.68,7.35q-3,1.61-6,3l-1.29.59c-.18.08-2.35,1-.69.31s-.53.2-.71.27c-.66.27-1.32.52-2,.77a104.92,104.92,0,0,1-12.85,3.87q-3.45.79-6.93,1.35c-.46.07-.94.11-1.39.21,2.59-.54,1.35-.17.69-.1-1.4.15-2.8.3-4.21.41a91.93,91.93,0,0,1-13.38.06q-1.76-.12-3.51-.3c.1,0-1.4-.13-1.41-.17,0,.15,2.54.37.34,0-2.47-.38-4.92-.86-7.34-1.46q-3.15-.79-6.23-1.86c-1.15-.4-2.28-.84-3.42-1.27-.67-.25-1.39-.91.49.22-.59-.36-1.36-.6-2-.9a70.83,70.83,0,0,1-12.16-7.19c-.91-.66-1.64-.47.13.12a6.7,6.7,0,0,1-1.11-.9c-.91-.76-1.79-1.55-2.66-2.36-1.71-1.61-3.26-3.34-4.8-5.11-1.25-1.43.22.41.34.49a5.87,5.87,0,0,1-1-1.4q-.9-1.26-1.71-2.58c-.6-1-1.16-2-1.68-3-.21-.41-.41-.82-.61-1.23-1.12-2.37-.12,0,0,0-.4.07-1.88-6-2-6.58s-.17-.91-.26-1.37c-.41-2,.15.71.06.72s-.35-4.55-.37-4.83c-.62-6.9-3.41-13.27-9.8-16.6-5.3-2.76-11.67-2.64-17.29-.95-10.82,3.24-18.81,11.28-27.41,18.17q-3.43,2.75-6.9,5.46l-1.46,1.14-1.14.88-1.14.88-2.21,1.68q-7.19,5.48-14.51,10.76Q1253.91,671,1239,680.76q-15.12,9.87-30.72,19-8,4.68-16.11,9.16c-2.34,1.29-4.67,2.6-7,3.84-.92.48-1.86.91-2.8,1.36-1.1.51-.45-.34.73-.31a8.81,8.81,0,0,0-1.82.69,43.21,43.21,0,0,1-5.93,1.7c-.52.11-1,.2-1.57.3-1.07.2-.8-.4.93-.12a26.76,26.76,0,0,0-3.33.15c-.49,0-1,0-1.46-.07-1.7-.06,1,.09,1.1.16a11.81,11.81,0,0,0-2.64-.7c2,.23,1.91.94,1.06.41a12.9,12.9,0,0,0-1.13-.67c-1.09-.48,1.9,1.9.7.49s0-.51.24.48a5.67,5.67,0,0,0-.59-1c-1.13-1.62.63,2.39,0-.18-.34-1.33-.56-.34,0,.24a6.58,6.58,0,0,1,0-1.74c0-.55-.25-3.15,0-.73a8.19,8.19,0,0,1,.35-1.76c.36-1.64.81-3.26,1.25-4.89l5-18.59,4.84-18.12c1.15-4.33-.73-9.69-4.83-11.86-4.44-2.34-8.94-1.43-12.72,1.65q-4,3.24-8,6.44-2,1.61-4,3.2l-2,1.59-1.36,1.06c1-.76,1-.78.07-.06-5.5,4.21-11.05,8.36-16.71,12.36a328.65,328.65,0,0,1-35,21.9c-3,1.6-6,3.15-9.11,4.62q-2.3,1.11-4.61,2.15l-1.55.7c-.43.19-3.83,1.66-1.37.61a176.39,176.39,0,0,1-19.37,6.93,156.86,156.86,0,0,1-20,4.52c-.82.13-1.66.28-2.49.37,2.36-.24.8-.11.29-.05-1.67.18-3.34.38-5,.52-3.52.31-7.07.52-10.6.5-1.31,0-2.63-.06-3.94-.16a7.56,7.56,0,0,0-2-.2c.2-.06,2.62.44.8.09-1.31-.25-2.61-.49-3.9-.84-.63-.17-1.26-.35-1.89-.56-.41-.13-.81-.28-1.22-.43-1-.41-.8-.3.74.33-.53-.67-2.47-1.34-3.25-1.8-1.87-1.08,1.73,1.68.21.18-.42-.41-.85-.84-1.28-1.24-1.45-1.35.88,1.67.36.52a11,11,0,0,0-.78-1.26c-1.17-1.74.63,2.36.08.3-.17-.64-.44-3.47-.39-1.14,0-.93,0-1.83.05-2.75-.18,2.46.17-.47.27-.87a48.86,48.86,0,0,1,1.71-5.39c.54-1.49,1.12-3,1.71-4.44l.72-1.77c.23-.56,1.23-3.32.27-.68,2.16-5.93,5.31-11.69,8.26-17.25a233.8,233.8,0,0,1,19.74-31c.46-.61.92-1.23,1.39-1.82-1.7,2.14-.06.09.24-.3.8-1,1.59-2,2.4-3q3.15-3.85,6.46-7.58,6.11-6.87,12.73-13.25,7.46-7.18,15.5-13.69l1.79-1.43c.43-.34,3.09-2.55.89-.71,1.37-1.15,2.86-2.17,4.3-3.22q4-2.93,8.15-5.69a229.26,229.26,0,0,1,37-20c4-1.73,6.12-7.86,4.82-11.86-1.56-4.83-5.3-7.06-10.12-7.71,3.22.44-.88-.23-1.53-.38-1.06-.23-2.11-.51-3.16-.82s-2.07-.66-3.09-1c-.18-.07-2.35-1-.76-.28s-1.12-.55-1.38-.68a51.29,51.29,0,0,1-5.67-3.25,14.46,14.46,0,0,1-3-2.1c.16.18,1.85,1.51.4.29-.56-.47-1.13-.93-1.68-1.42a59,59,0,0,1-4.73-4.63c-.83-.91-1.62-1.85-2.41-2.79-1.2-1.44.09.19.27.38a16.66,16.66,0,0,1-1.52-2.09,65,65,0,0,1-3.68-6c-.53-1-1-2-1.51-3-.27-.55-.52-1.11-.77-1.67-.93-2,.82,2.23-.13-.36-1.89-5.16-3.87-10.85-4.25-16.39.16,2.31,0,.28,0-.31s-.15-1.48-.21-2.22c-.11-1.34-.19-2.68-.24-4-.11-3.14-.07-6.29.12-9.43q.11-1.8.27-3.6c.09-.9.2-1.79.29-2.69,0-.47.11-2.05,0,.1a57.18,57.18,0,0,1,1.63-8.87,128.74,128.74,0,0,1,4.23-14.8,36.66,36.66,0,0,1,2.51-6.57c-.14.23-.95,2.19-.19.46.24-.57.49-1.13.74-1.7.56-1.23,1.13-2.47,1.72-3.69a138,138,0,0,1,6.79-12.33c1.24-2,2.53-4,3.86-5.89.63-.91,1.28-1.82,1.93-2.72l1.1-1.49c1.63-2.17-.94,1.14.39-.52,2.94-3.66,6-7.22,9.25-10.59a138,138,0,0,1,10.55-9.83c.86-.71,1.72-1.4,2.58-2.1,1.91-1.54-1.34,1-.08.06l1.47-1.12c2-1.46,4-2.87,6-4.23a130.37,130.37,0,0,1,12.11-7c2.08-1.06,4.19-2.07,6.33-3,.65-.29,2.26-.71-.13,0,.45-.14.91-.38,1.36-.56,1.26-.5,2.53-1,3.8-1.45,2.71-1,5.46-1.89,8.25-2.63,1.5-.39,3-.74,4.52-1a9,9,0,0,1,1.66-.28c-2.54-.12-.15,0,.53,0a39,39,0,0,1,5-.13l1.63.11c2.4.17-1.71-.49.41.09.65.18,1.31.3,2,.48s3.45.77.9.19c1.09.25,2.15,1.67,3.18,1.78-1.09-.12-1.62-1.43-.72-.54l1.49,1.49c1.14,1.14-.23.76-.34-.47,0,.41.78,1.18,1,1.53s.37.72.57,1.07c1,1.8-.66-2.12-.12-.28a32.8,32.8,0,0,0,.88,3.48c-.09-.21-.16-2.7-.18-1,0,.57,0,1.16,0,1.74.08,2,.56-2.08.16-.82-.18.61-.31,1.28-.46,1.9-.26,1.06-.74.26.44-1a9.69,9.69,0,0,0-.81,1.43c.24-1.48,1.54-1.61.42-.61-1.85,1.65,1.82-1.15.13,0-4.52,3.1-7,9.35-3.77,14.36,2.9,4.49,9.53,7.1,14.37,3.77Z" transform="translate(-983.99 -271.04)"/>
  <path class="cls-1" d="M1220.09,401.19l.72-1.73-1.06,2.51a186,186,0,0,1,23.91-40.71l-1.64,2.13a198,198,0,0,1,35.09-35.06L1275,330a198.17,198.17,0,0,1,44-25.76l-2.51,1.06a185.69,185.69,0,0,1,46.88-12.85l-2.79.38a52.51,52.51,0,0,1,13.07-.51l-2.79-.37a24.16,24.16,0,0,1,5.91,1.54l-2.5-1.06a24.24,24.24,0,0,1,4.94,2.9l-2.13-1.64a32.49,32.49,0,0,1,5.43,5.5l-1.65-2.12a53.77,53.77,0,0,1,6.69,11.84l-1.06-2.51a69.56,69.56,0,0,1,4.6,17.13l-.37-2.79a73.89,73.89,0,0,1,0,19.2l.38-2.79a73.39,73.39,0,0,1-5.06,18.52l1.06-2.51a68.29,68.29,0,0,1-8.44,14.51l1.64-2.12c-.39.5-.79,1-1.2,1.51-1.81,2.23-3.07,4.44-3.07,7.42a10.7,10.7,0,0,0,3.07,7.43c4.44,4.06,10.42,3.85,14.85,0q3.21-2.79,6.57-5.4l-2.13,1.65A149.11,149.11,0,0,1,1431.29,359l-2.51,1.06a149.39,149.39,0,0,1,37.8-10.3l-2.79.38c8.75-1.15,17.67-1.69,26.45-.57l-2.79-.38a51.92,51.92,0,0,1,13,3.44l-2.51-1.05a39.26,39.26,0,0,1,8.26,4.83l-2.12-1.64a41.29,41.29,0,0,1,7.14,7.21l-1.65-2.12a48.41,48.41,0,0,1,5.84,10.07l-1.06-2.5a56.12,56.12,0,0,1,3.85,14.11l-.37-2.79a65.93,65.93,0,0,1-.11,16.9l.37-2.79a106.94,106.94,0,0,1-7.76,26.84l1.06-2.5a256,256,0,0,1-33.18,56l1.64-2.12a269,269,0,0,1-36.3,38.45q-5.67,4.93-11.61,9.53l2.12-1.64q-2.3,1.77-4.62,3.49c-2.28,1.68-4,3.45-4.83,6.28a10.73,10.73,0,0,0,1.06,8.09,10.59,10.59,0,0,0,6.27,4.82c2.59.59,5.87.59,8.09-1.06a276.85,276.85,0,0,0,52.56-50.42c15.79-19.91,29.2-41.68,38.77-65.27,5.09-12.55,8.6-26.31,7.91-39.94-.61-11.89-4.1-24.18-11.28-33.82a49.26,49.26,0,0,0-33.36-20.45c-13.49-2.15-27.09-1-40.47,1.4a157.16,157.16,0,0,0-67.49,30.29c-2.6,2-5.15,4.06-7.63,6.22l14.85,14.85a80.25,80.25,0,0,0,16.19-32.54,84.64,84.64,0,0,0,.38-36.4,78.06,78.06,0,0,0-6-17.3,50,50,0,0,0-10.57-15.11,32.78,32.78,0,0,0-8.2-5.87,37,37,0,0,0-13.23-3.49c-6.57-.57-13.37.7-19.83,1.76a196.13,196.13,0,0,0-61,21.14,207.38,207.38,0,0,0-51.37,39.18,196.43,196.43,0,0,0-36.52,53.17c-1.39,3-2.69,6.1-4,9.18-1,2.34-.16,6,1.06,8.09a10.48,10.48,0,0,0,14.36,3.77,12.4,12.4,0,0,0,4.83-6.28Z" transform="translate(-983.99 -271.04)"/>
  <path class="cls-1" d="M1257.69,478.28a272.18,272.18,0,0,0,2.52,54.57c.35,2.42,2.83,5.11,4.83,6.28a10.73,10.73,0,0,0,8.09,1,10.58,10.58,0,0,0,6.27-4.82l1.06-2.51a10.57,10.57,0,0,0,0-5.58c-.11-.81-.23-1.62-.34-2.43l.38,2.79a258.47,258.47,0,0,1-1.81-49.35,10.5,10.5,0,0,0-21,0Z" transform="translate(-983.99 -271.04)"/>
</svg>
