<svg id="Livello_1" data-name="Livello 1" xmlns="http://www.w3.org/2000/svg" viewBox="0 0 574.35 462.43">
  <defs>
    <style>
      .cls-1 {
        fill: #ebdf00;
      }
    </style>
  </defs>
  <path class="cls-1" d="M723.53,330.1c-1.61-2.55-3.16-5.13-4.6-7.78-.7-1.29-1.38-2.59-2-3.91-.32-.66-.62-1.34-.94-2-1.08-2.21.48,1.38-.32-.71a59.79,59.79,0,0,1-2.68-8.56c-.15-.67-.27-1.35-.4-2-.52-2.59,0,1.6,0,0,0-1.45-.17-2.89-.09-4.35l0-.78c.13-1.19.1-1-.07.49a12,12,0,0,0,.32-1.5c.18-.75.44-1.48.66-2.21.72-2.33-.81,1.25,0,0,.36-.54.63-1.17,1-1.72.11-.17,1.71-2,.59-.89s.53-.51.63-.61,1.3-1.49,1.55-1.43l-1,.79c.38-.27.76-.53,1.15-.78s.78-.48,1.18-.7l.61-.32c1-.48.81-.41-.64.21,0-.16,1.42-.51,1.63-.58,1.12-.36,2.25-.59,3.39-.85,2.15-.5-.3-.09-.33,0a9.24,9.24,0,0,1,2.16-.15,38.9,38.9,0,0,1,4,0c.62,0,1.24.11,1.86.16,2.49.2-1.75-.35-.18,0a77.41,77.41,0,0,1,7.78,1.91c1.33.43,2.63.93,3.93,1.43,1.49.56-2.31-1.12-.08,0,.55.27,1.12.52,1.68.8,2.56,1.26,5,2.68,7.48,4.19s4.87,3.16,7.2,4.9c.46.34,2,1.55.18.12l1.61,1.31c1.29,1.05,2.54,2.14,3.77,3.25a117.28,117.28,0,0,1,11.89,12.73c1.07,1.3-1.44-2,.13.18.49.68,1,1.34,1.47,2q1.44,2,2.79,4.13c1.79,2.79,3.46,5.67,5,8.62.76,1.48,1.49,3,2.17,4.49.23.5.45,1,.68,1.51-1.11-2.48.34.87.52,1.33,1.2,3.1,2.23,6.26,3.13,9.46A10.51,10.51,0,0,0,813,349.48a106.66,106.66,0,0,1,.64-14.74c0-.16.4-2.68.11-.91s.13-.74.15-.9c.16-1,.34-2,.53-3.05q.72-3.81,1.7-7.55a122.31,122.31,0,0,1,4.65-14c.94-2.38-.67,1.49,0,0,.27-.59.52-1.19.79-1.78.42-.94.86-1.88,1.31-2.81,1.13-2.33,2.34-4.63,3.61-6.88a122.84,122.84,0,0,1,8-12.4,12.15,12.15,0,0,1,.93-1.24c-1.62,1.73-.37.47,0,0,.72-.91,1.46-1.82,2.21-2.71q2.5-3,5.2-5.8a120.65,120.65,0,0,1,10.82-10l1.21-1c2-1.62-1.28.94,0,0,.94-.7,1.87-1.4,2.81-2.07q3.16-2.25,6.46-4.29a110.42,110.42,0,0,1,13-6.86c.46-.21.94-.44,1.42-.62-2.34.86-.59.26,0,0,1.08-.43,2.16-.84,3.26-1.24,2.43-.87,4.9-1.66,7.4-2.35,2.27-.63,4.56-1.19,6.87-1.64,1.18-.23,2.37-.41,3.55-.61,1.66-.26-2.63.22,0,0,.81-.06,1.61-.15,2.42-.21a60.13,60.13,0,0,1,7.23-.08l1.58.11c.15,0,2.74.3,1,.08s.78.14.93.17c.76.15,1.52.31,2.28.5,1,.24,2,.53,3,.85.13.05,2.54.82.9.28s.66.32.83.41a31.09,31.09,0,0,1,3,1.69,11.55,11.55,0,0,1,1.57,1.09c-1.22-1.19-.61-.45.24.34s1.44,1.51,2.16,2.27c1.71,1.81-.77-1.29,0,0,.33.54.72,1.05,1.05,1.59.52.86.95,1.76,1.42,2.65,1.17,2.23-.63-2.14.09.27.22.72.49,1.42.69,2.15.28,1,.52,1.95.71,2.95,0,.16.55,2.63.19.87s.07.72.08.91a55.65,55.65,0,0,1,.12,7.53q-.09,1.81-.27,3.63c0,.11-.28,2.79-.1,1.05s-.14.94-.16,1.05c-.41,2.58-.92,5.15-1.5,7.7a373.8,373.8,0,0,1-10.91,37.4c-1.13,3.32-2.32,6.63-3.6,9.9-.58,1.48-1.17,3-1.79,4.43.73-1.73.08-.2-.07.12-.39.87-.77,1.75-1.17,2.61a136.52,136.52,0,0,1-10.11,18.36l19.19,8.09c.12-.28,1.32-3.06.34-.87.37-.83.74-1.66,1.13-2.48q1-2.06,2.06-4.05a104.22,104.22,0,0,1,5.68-9.31q1.27-1.87,2.63-3.71c.16-.22,2-2.62.57-.79l1.14-1.43c2.3-2.86,4.71-5.63,7.2-8.34a315,315,0,0,1,29.18-27.52q3.84-3.22,7.77-6.34l2.15-1.69c-.32.25-1.54,1.18,0,0s3.16-2.39,4.76-3.56q8.26-6.07,17-11.53c5.64-3.51,11.41-6.81,17.32-9.83q4.39-2.25,8.9-4.29l1.64-.73c.29-.13,3-1.31.77-.35,1.64-.7,3.3-1.36,5-2a167.45,167.45,0,0,1,18.54-6q4.69-1.22,9.46-2.12c1.44-.27,2.88-.53,4.33-.76l2.61-.39c-2.71.39,1.1-.11,1.58-.17a134.65,134.65,0,0,1,19.47-.68c1.49.06,3,.14,4.47.25.87.07,1.73.16,2.6.24,2.78.25-1.43-.37.24,0s3.09.74,4.63,1.13c2.5.63-1-.71.26.07.85.51,1.73.93,2.56,1.5-1.9-1.32-.07.13.27.43,1.63,1.41-.45-.53-.28-.51s.94,1.48,1.1,1.72c1.27,1.85-.57-2.2,0-.06.12.44.28.85.39,1.29l.16.65c.21,1.14.2.88,0-.78-.33.38.07,3.43.06,4.18,0,2.46.54-2.36,0,.09-.15.73-.28,1.46-.45,2.18-.3,1.24-.67,2.46-1.08,3.67a12,12,0,0,1-.82,2.19c.15-.25,1-2.1.12-.34-.75,1.55-1.5,3.09-2.35,4.59a76.64,76.64,0,0,1-4.46,6.81c-1.49,2.08,1.36-1.7-.47.61l-1.4,1.78c-1.22,1.53-2.45,3.05-3.71,4.55q-6.36,7.62-13.3,14.76-7.87,8.1-16.42,15.5-4.1,3.56-8.34,6.93c-.7.57-1.41,1.12-2.12,1.68,1.8-1.41-.75.57-1.1.84-1.57,1.18-3.14,2.34-4.73,3.49A264.92,264.92,0,0,1,1009,358.54l10.6,18.13c2.7-1.36,5.43-2.67,8.2-3.89,0,0,2.69-1.14,1.24-.54s1.31-.52,1.27-.51q2.31-.92,4.65-1.77a165.44,165.44,0,0,1,17.79-5.37c2.65-.63,5.31-1.21,8-1.72,1.49-.28,3-.54,4.47-.78.89-.15,1.79-.28,2.69-.42,2.31-.36-1.74.19.8-.11a179.66,179.66,0,0,1,18.1-1.29,171.35,171.35,0,0,1,18.13.63c1.51.13,3,.28,4.52.46l2.25.27c1.8.21-2.54-.39.35.06s6,1,8.94,1.56a163.62,163.62,0,0,1,18,4.7q4.11,1.32,8.13,2.86c1.41.54,2.81,1.1,4.21,1.68-2-.81-.07,0,.41.19,1,.42,1.94.86,2.9,1.3,2.26,1,4.5,2.14,6.67,3.37,1.17.65,2.31,1.34,3.43,2.08a11.75,11.75,0,0,1,2,1.37l-.87-.67c.41.32.81.66,1.21,1,1,.86,1.83,1.8,2.75,2.73.59.6,1.17.64-.22-.34a5.72,5.72,0,0,1,1,1.57c.21.36.93,1.26.89,1.66l-.46-1.12c.14.35.26.71.37,1.08s.62,1.53.47,1.87c-.14-1.33-.17-1.6-.11-.81a11.81,11.81,0,0,1,.06,1.18c0,.23.23,2.65.06.92-.15-1.53-.09.43-.2.88s-.26,1-.41,1.48l-.25.73c-.42,1.08-.37,1,.15-.35,0,.86-1.31,2.43-1.76,3.12s-.76,1.12-1.15,1.68c1.4-2,0,0-.43.46a55.72,55.72,0,0,1-6.07,5.93c-.43.37-.88.72-1.31,1.09-2.16,1.83,1.73-1.22-.54.43-1.31.94-2.62,1.89-3.94,2.81a347.88,347.88,0,0,1-32.61,20.17q-8.31,4.53-16.87,8.61-4.28,2-8.6,4l-3.9,1.7c-.46.2-2.39,1-.54.24l-2.63,1.09a353.3,353.3,0,0,1-82.92,22.69c-4.32.63-7.89,5.95-7.71,10.12a11,11,0,0,0,7.71,10.13c3,1,6,2.1,8.93,3.27l2.2.89c2.51,1-2.06-.92.41.17,1.69.75,3.38,1.5,5.05,2.28a189.26,189.26,0,0,1,17.44,9.31,195,195,0,0,1,16.39,11.05c.64.48,1.27.95,1.89,1.44-2.1-1.65,0,0,.37.31q1.86,1.47,3.69,3,3.94,3.3,7.73,6.8,7.27,6.72,13.87,14.14,2.9,3.26,5.66,6.63c1,1.23,2,2.45,3,3.72-1.58-2.15,0,0,.29.39l1.88,2.55a200.89,200.89,0,0,1,20.06,34.07c.66,1.44,1.29,2.89,1.93,4.34,1.1,2.47-.84-2.1.18.4.29.74.6,1.47.89,2.2q1.9,4.77,3.55,9.65a187.25,187.25,0,0,1,5.33,19c.63,2.84,1.2,5.69,1.69,8.55.14.78.27,1.56.39,2.35,0,.27.45,3.42.17,1a56.4,56.4,0,0,1,.45,6.75c0,1-.08,1.91-.12,2.86-.13,2.86.64-1.77-.17,1-.26.91-.5,1.83-.75,2.74-.75,2.67,1-1.31-.33.69-.42.65-.81,1.35-1.22,2-1.28,2.12,1.51-1.38-.29.32-.57.54-1.08,1.14-1.66,1.67-.39.35-.78.69-1.19,1q1.63-1.25.21-.24c-1.15.68-2.8,2.2-4.16,2.35l1-.42c-.5.2-1,.39-1.51.57-.76.27-1.53.51-2.3.72s-1.56.4-2.35.56c-.57.12-3.07.87-.37.12-2.19.61-5.07.29-7.32.18-1,0-2.08-.15-3.13-.25-3.32-.31,1.92.45-1.36-.2-2.08-.42-4.15-.8-6.2-1.29-4.38-1.05-8.71-2.32-13-3.61q-23.76-7.1-46.77-16.48l-2.81-1.15-1.87-.78c1,.4.86.36-.29-.13-2.17-.93-4.34-1.86-6.5-2.82q-6.48-2.86-12.87-5.92-12.57-6-24.81-12.67c-3.5-1.93-7-3.93-10.34-6.07-1.69-1.08-3.35-2.18-5-3.34-.7-.49-1.38-1-2.07-1.51-1-.71-.91-.68.1.09-.45-.35-.89-.7-1.32-1.06a67.18,67.18,0,0,1-8.43-8.18c-.55-.63-1.08-1.27-1.59-1.93,1.61,2.07-.54-.85-.81-1.25a54.74,54.74,0,0,1-2.95-5.09L940.24,596.4c1.24,1.53.22.25,0-.06q.66.87,1.29,1.77,1.13,1.62,2.16,3.3a73.38,73.38,0,0,1,3.68,7c.2.41.74,1.86,0-.09.21.54.44,1.08.64,1.63.41,1.09.79,2.2,1.15,3.31a68.08,68.08,0,0,1,2,8.08c.1.58.18,1.16.29,1.73.3,1.57-.15-1.78,0-.19.1,1.31.25,2.62.32,3.93a62.79,62.79,0,0,1-.07,7.88c0,.69-.44,3.93-.09,1.56-.19,1.27-.41,2.54-.68,3.79a51.94,51.94,0,0,1-2.14,7.42c-.21.55-1,2.31-.08.27-.24.52-.47,1-.72,1.55-.5,1-1,2-1.62,3s-1.22,1.9-1.85,2.84c-1.47,2.21,1-1-.17.2-.48.5-.91,1.07-1.4,1.58-.88.92-1.85,1.72-2.77,2.6-1.08,1,1.36-.87.13-.1-.44.27-.87.6-1.31.88a34.08,34.08,0,0,1-3.05,1.73,8.82,8.82,0,0,0-1.4.65c1.21-.51,1.46-.62.73-.35-.36.14-.72.27-1.08.38-1,.32-1.94.59-2.93.82-.5.12-1,.2-1.49.32-1.85.42.18-.07.52,0-2.31-.27-4.94.35-7.32.21-.39,0-3.66-.36-2.13-.15,1.78.24-.81-.16-.95-.18-.53-.1-1.05-.2-1.57-.32a56.88,56.88,0,0,1-7-2c-1-.37-2-.77-3.07-1.17,2.4,1-1-.52-1.62-.81a69.82,69.82,0,0,1-6.49-3.63c-1.05-.66-2.07-1.34-3.08-2.05-.56-.39-3-2.37-1.14-.8-1.94-1.61-3.86-3.23-5.69-5a109.21,109.21,0,0,1-10.43-11.49c1.39,1.76-.61-.83-1-1.32q-1-1.4-2-2.82c-1.45-2.14-2.84-4.34-4.15-6.57a133.46,133.46,0,0,1-7.06-13.91c-.18-.41-.72-1.86,0,.11-.21-.54-.44-1.08-.65-1.62-.48-1.21-1-2.43-1.39-3.66-.89-2.46-1.72-4.94-2.47-7.44a147.46,147.46,0,0,1-3.65-14.81c-.46-2.42-.84-4.85-1.22-7.29-.28-1.81.32,2.94,0-.4-.08-.69-.17-1.38-.24-2.07-.19-1.73-.36-3.46-.49-5.19a204.08,204.08,0,0,1,1.08-40.6c.08-.69.17-1.38.26-2.07-.26,2,.18-1.28.19-1.36.25-1.73.52-3.45.8-5.17q.85-5.18,1.9-10.31c1.37-6.85,3-13.64,4.75-20.4a10.53,10.53,0,0,0-6.08-12.38c-5.2-2.2-9.88.07-13.11,4.29,1.47-1.92-.33.42-.53.67l-1.66,2.07c-1.11,1.37-2.25,2.72-3.4,4.06q-3.47,4-7.14,7.85A200.67,200.67,0,0,1,817.74,510q-2,1.71-4.1,3.37l-1.73,1.37c-1.37,1.09,2-1.45-.33.25-3,2.19-5.93,4.36-9,6.42a197.73,197.73,0,0,1-17.81,10.67c-2.86,1.51-5.77,3-8.7,4.33q-2.42,1.11-4.84,2.17c-1.83.81-.29.13.07,0q-1.69.71-3.39,1.38a115.51,115.51,0,0,1-22.72,6.63c-.49.08-2.67.41-.68.14-1,.14-2,.24-3,.32q-3,.25-6,.26c-1.65,0-3.31-.08-5-.22-.23,0-3.45-.48-1.16-.1-1.28-.21-2.56-.45-3.82-.75-.89-.21-1.75-.49-2.62-.73-1.84-.5-.46-.12,0,.09a23.29,23.29,0,0,1-2.35-1.29c1.87,1.13-.17-.27-.55-.62,1.61,1.5,0,0-.33-.58-.23-.4-1.3-2.9-.4-.55a39.7,39.7,0,0,1-1.49-4.91c-.2-.85-.39-1.72-.56-2.58-.09-.51-.53-4.26-.28-1.56-.16-1.76-.31-3.5-.35-5.27a60.37,60.37,0,0,1,.2-6.16c0-.41.41-3.33,0-.71.13-.87.27-1.74.43-2.6a63.32,63.32,0,0,1,3.19-11c-.88,2.31.18-.39.34-.73.5-1.06,1-2.11,1.59-3.13a58.65,58.65,0,0,1,3.25-5.24c2.52-3.67,1.59-9.76-1.64-12.72-3.65-3.35-8.34-3.75-12.73-1.65-.66.32-1.34.63-2,.94-2.31,1.08,2.18-.77-.22.08-1.4.49-2.78,1-4.2,1.46a67.1,67.1,0,0,1-8.65,2l-.73.12c-1.18.17-1,.15.58-.07a7,7,0,0,1-1.48.16c-1.47.15-3,.25-4.44.3a69.59,69.59,0,0,1-8.9-.26,10.11,10.11,0,0,1-2.21-.24c2.53.89.7.09-.14-.06-1.21-.2-2.42-.44-3.62-.71a65.5,65.5,0,0,1-8.8-2.64,10.55,10.55,0,0,1-1.7-.67c2.35,1.42.43.16-.17-.12-1.32-.61-2.62-1.28-3.89-2-1.06-.59-2.1-1.21-3.12-1.87-.61-.39-1.21-.79-1.81-1.21l-1.18-.85c-.9-.68-.77-.57.4.32-2-.82-4.39-3.86-5.84-5.43-.5-.54-1-1.09-1.46-1.64-.64-.76-1.08-2.23-.19-.17a29.62,29.62,0,0,0-2.39-3.46c-.7-1.13-1.35-2.29-1.95-3.47-.3-.59-.58-1.2-.86-1.79-.62-1.27.45,0,.27.68.18-.71-1.09-3-1.33-3.74-.43-1.37-.79-2.76-1.1-4.17a20.14,20.14,0,0,0-.66-3.59c.93,2.07.18,1.45.06.15-.07-.66-.12-1.32-.16-2a56.08,56.08,0,0,1,.1-8,8,8,0,0,0,.2-2c.32,1.44-.3,2-.1.81.23-1.31.46-2.62.75-3.92a55,55,0,0,1,2.32-7.6l.24-.61c.43-1.05.33-.82-.29.69.42-.27.88-1.9,1.12-2.38.59-1.16,1.23-2.31,1.9-3.43.51-.83,2.5-2.88,2.54-3.77l-.85,1.09c.26-.34.54-.67.81-1,.42-.5.84-1,1.28-1.46a41.74,41.74,0,0,1,3.2-3.18c.49-.43,1-.84,1.48-1.25,1.64-1.4-1.74,1.17-.07.07,1.27-.83,2.51-1.68,3.85-2.42.57-.32,1.15-.62,1.74-.91,2.67-1.31-1.21.42.53-.27,4-1.6,6.91-4.23,7.52-8.73a10.47,10.47,0,0,0-5-10.46,9,9,0,0,1-2.49-1.57c1.16.9,1.31,1,.44.24-.35-.32-.69-.66-1-1s-.65-.71-1-1.09c.89,1.18,1,1.3.34.38-.5-.85-1-1.66-1.49-2.53-.22-.44-.44-.88-.63-1.33.57,1.37.65,1.51.24.43s-.6-1.89-.83-2.87q-.16-.74-.3-1.47c-.19-1.17-.17-1,.06.56-.37-.45-.15-2.42-.15-3s-.22-2.58.15-3c-.23,1.56-.25,1.75-.06.58.1-.58.23-1.16.36-1.73.27-1.14.6-2.27,1-3.38.19-.55.4-1.1.61-1.65-.5,1.16-.5,1.18,0,.09a62.28,62.28,0,0,1,3.51-6.14c.23-.35,2.47-3.35,1-1.47.74-.94,1.51-1.85,2.29-2.74q2.37-2.68,5-5.14c.82-.77,1.66-1.54,2.52-2.27.34-.3,3.23-2.58,1.23-1.07a67.42,67.42,0,0,1,11.85-7.11c-2.35,1.11,1-.36,1.44-.53q1.59-.55,3.21-1c1.07-.29,2.16-.49,3.23-.74s1.09-.19-.35,0c.54-.07,1.08-.11,1.62-.15q1.62-.11,3.24-.06c.54,0,1.08.05,1.62.1,1.2.13,1.07.1-.39-.07.84-.15,2.36.5,3.17.73.51.15,3.79,1.48,1.37.4,5,2.23,11.52,1.62,14.37-3.77,2.41-4.57,1.59-12-3.77-14.36a43.52,43.52,0,0,0-29.29-2.46c-9.45,2.44-17.87,7.52-25.41,13.56-15.13,12.11-26.83,30.28-23.8,50.26,1.53,10,7.59,19.52,16.54,24.49l2.5-19.19a54.69,54.69,0,0,0-29,26.18A65.89,65.89,0,0,0,618.78,454c1.69,14,7.56,26.87,17.87,36.72a70.81,70.81,0,0,0,37.07,18.3,80,80,0,0,0,48.22-6.64L707.58,488a69,69,0,0,0-11.25,47.69c1.16,8.58,3.39,18,10.17,24,7.54,6.64,18.36,8.37,28.09,8.55,18,.34,35.55-6.06,51.68-13.55A207.74,207.74,0,0,0,863.42,492l-19.19-8.09c-12.93,49.5-16.81,104.38,9.22,150.5C865,654.81,882,672.56,904.15,681c10.58,4,22.71,5.38,33.75,2.42a44.71,44.71,0,0,0,27.78-22.83c13.22-25.66,7.11-57.23-10.59-79.05-3.29-4-10-3.73-13.79-.82-4.26,3.29-5.12,8.83-2.7,13.54,7.38,14.41,20.65,24.66,34.34,32.71a431.36,431.36,0,0,0,46,23,537.09,537.09,0,0,0,51.76,19.58c17.19,5.46,36.77,12.46,54.78,6.83a39.8,39.8,0,0,0,21-15c5.46-7.7,6.32-17.82,5.23-26.93a182.57,182.57,0,0,0-10.59-42.88,214,214,0,0,0-46.2-73,207.61,207.61,0,0,0-71.91-48.38c-3.19-1.29-6.41-2.47-9.67-3.57v20.25a360.43,360.43,0,0,0,151.92-59.77c11-7.59,23.27-17,26.53-30.75a29.44,29.44,0,0,0-3-21.51c-3.47-6.07-9.09-10.77-15-14.39-11-6.8-23.93-11.41-36.36-14.82a182.54,182.54,0,0,0-40.36-6.22A178.92,178.92,0,0,0,1009,358.54c-4.91,2.49-6.71,9.8-3.77,14.37,3.27,5.07,9.08,6.35,14.37,3.76a273.77,273.77,0,0,0,71.21-50.41c10.41-10.2,20.78-21.37,28.82-33.56,7.14-10.82,13-26,7.88-38.82-3.39-8.46-10.2-14.25-18.94-16.84-7-2.07-14.78-2.26-22-2.25a154.13,154.13,0,0,0-43.64,6.63c-28.39,8.49-54,23.93-77.21,42a335.87,335.87,0,0,0-36,32.2c-12.31,12.81-22.76,27-29.3,43.59-1.91,4.86,1.72,10.55,6.08,12.39,4.95,2.09,10.21.12,13.12-4.29,14.43-21.93,22.21-48.22,28.69-73.44,3-11.81,4.87-23.9,3.1-36s-9.23-23.66-20.28-29.48c-21.46-11.3-48.21-4.23-68.68,5.94-20,10-37,25.81-49.38,44.36-13.83,20.73-21.65,45.82-21,70.8l20.63-2.8a115.85,115.85,0,0,0-49.46-66.16c-11.17-7-24.38-12.35-37.81-11.8-15,.61-29.05,9.41-32.81,24.65C688.43,310,696.72,327,705.4,340.7c2.93,4.64,9.48,6.91,14.36,3.77,4.64-3,6.91-9.41,3.77-14.37Z" transform="translate(-618.36 -222.61)"/>
</svg>
