<?xml version="1.0" encoding="utf-8"?>
<!-- Generator: Adobe Illustrator 25.3.0, SVG Export Plug-In . SVG Version: 6.00 Build 0)  -->
<svg version="1.1" id="Livello_1" xmlns="http://www.w3.org/2000/svg" xmlns:xlink="http://www.w3.org/1999/xlink" x="0px" y="0px"
	 viewBox="0 0 446.34 450" style="enable-background:new 0 0 446.34 450;" xml:space="preserve">
<style type="text/css">
	.st0{fill:#E80800;}
	.st1{fill:#FFFF00;}
</style>
<g>
	<path class="st0" d="M131.59,35.6l47.06,45.23c8.11,7.79,21.51,5.01,25.85-5.36l25.18-60.22c6.16-14.72,27.7-12.35,30.51,3.36
		l11.49,64.25c1.98,11.07,14.46,16.7,24.06,10.85l55.77-33.92c13.63-8.29,29.67,6.29,22.71,20.65l-28.47,58.73
		c-4.9,10.12,1.88,22.01,13.09,22.93l65.05,5.34c15.9,1.31,20.31,22.53,6.24,30.06l-57.56,30.78c-9.92,5.3-11.41,18.91-2.89,26.24
		l49.49,42.56c12.1,10.4,3.18,30.16-12.62,27.98l-64.66-8.93c-11.14-1.54-20.35,8.59-17.76,19.53l15.02,63.52
		c3.67,15.53-15.15,26.27-26.66,15.22l-47.06-45.23c-8.11-7.79-21.51-5.01-25.85,5.36l-25.18,60.22
		c-6.16,14.72-27.7,12.35-30.51-3.36l-11.49-64.25c-1.98-11.07-14.46-16.7-24.06-10.85L92.58,390.2
		c-13.63,8.29-29.67-6.29-22.71-20.65l28.47-58.73c4.9-10.12-1.88-22.01-13.09-22.93l-65.05-5.34c-15.9-1.31-20.31-22.53-6.24-30.06
		l57.56-30.78c9.92-5.3,11.41-18.91,2.89-26.24l-49.49-42.56c-12.1-10.4-3.18-30.16,12.62-27.98l64.66,8.93
		c11.14,1.54,20.35-8.59,17.76-19.53l-15.02-63.52C101.26,35.3,120.08,24.55,131.59,35.6z"/>
	<g>
		<path class="st1" d="M166.82,262.54L150.25,272l9.51,16.65l-9.63,5.5l-23.62-41.37l29.09-16.61l4.22,7.39l-19.46,11.11l5.68,9.94
			l16.56-9.46L166.82,262.54z"/>
		<path class="st1" d="M199.29,255.42l-13.04,7.45l2.26,9.37l-9.66,5.52l-10.26-48.99l10.31-5.89l37,33.73l-9.66,5.51L199.29,255.42
			z M184.16,254.26l8.78-5.01l-12.77-12.34l-0.17,0.1L184.16,254.26z"/>
		<path class="st1" d="M207.82,206.36l25.79,23.66l0.17-0.1l-7.15-34.3l12.67-7.23l23.62,41.37l-9.63,5.5l-5.86-10.26l-9.88-19.41
			l-0.19,0.07l6.69,34.87l-6.48,3.7l-26.37-23.29l-0.16,0.12l11.55,18.12l5.86,10.26l-9.63,5.5l-23.62-41.37L207.82,206.36z"/>
		<path class="st1" d="M285.14,193.59l-16.22,9.26l5.89,10.31l19.12-10.92l4.22,7.39l-28.75,16.42l-23.62-41.37l28.81-16.45
			l4.22,7.39l-19.18,10.95l5.08,8.89l16.22-9.26L285.14,193.59z"/>
		<path class="st1" d="M301.26,192.19c-1.48-2.64-2.14-4.89-1.97-6.75c0.17-1.85,1-4.35,2.47-7.48c0.81-1.52,1.25-3.07,1.31-4.67
			c0.06-1.59-0.35-3.15-1.23-4.69c-0.91-1.59-2.06-2.62-3.45-3.08c-1.39-0.46-2.88-0.24-4.45,0.65c-1.27,0.72-2.11,1.72-2.52,2.98
			c-0.41,1.26-0.2,2.67,0.64,4.23l-9.35,5.34l-0.16-0.14c-2.3-3.91-2.74-7.58-1.3-11.03c1.44-3.44,4.26-6.37,8.46-8.77
			c4.51-2.57,8.7-3.46,12.59-2.67c3.88,0.8,6.93,3.13,9.13,6.99c1.35,2.37,1.89,4.95,1.61,7.74c-0.28,2.79-1.18,5.38-2.71,7.76
			c-0.76,1.49-1.09,2.81-0.99,3.97c0.1,1.16,0.6,2.53,1.49,4.1L301.26,192.19z M317.58,198.54l-9.55,5.45l-4.38-7.67l9.55-5.45
			L317.58,198.54z"/>
	</g>
</g>
</svg>
