<svg id="Livello_1" data-name="Livello 1" xmlns="http://www.w3.org/2000/svg" viewBox="0 0 72.66 75.21">
  <defs>
    <style>
      .cls-1 {
        fill: #ebdf00;
        stroke: #ebdf00;
        stroke-linejoin: round;
        stroke-width: 3px;
      }
    </style>
  </defs>
  <path class="cls-1" d="M51.59,84.44C39.23,80,25.27,74.86,18.75,62.52c-1.42-2.7-2.63-5.92-2.15-9,.56-3.59,3.7-5.11,7-5.37,6.65-.52,13.54,2.45,18.8,6.28,1.77,1.29,4-1.61,2.35-3-3.22-2.76-4.17-7-4.59-11A27,27,0,0,1,42.85,26c2.14-4.28,5.51-6.79,10.44-5.71a19.73,19.73,0,0,1,10.19,6.29c6,6.66,7.53,16,6.07,24.65a45.94,45.94,0,0,1-1.7,6.82c-.39,1.17-2,7-3.81,4.43-1.14-1.57-1-4.64-.85-6.47a29.36,29.36,0,0,1,1.71-7.68c3.46-9.87,10.36-18.08,17-26,1.59-1.9-1.14-4.65-2.74-2.74-7.68,9.19-15.89,18.95-18.92,30.81C59.06,54.92,58,62.66,62,66.18c4.41,3.87,7.88-2.29,9.12-5.76,3.91-11,4.29-24-2.75-33.87C62.93,18.93,50.12,11.2,42.22,20c-4.09,4.56-5.92,11.48-6,17.48-.11,5.8,1.24,12.7,5.84,16.63l2.34-3c-6.09-4.45-14.36-7.7-22-6.68-7.88,1.05-11.17,7.83-9,15.16C18.21,76,36,83,50.56,88.17c2.36.85,3.37-2.9,1-3.73Z" transform="translate(-11.19 -14.59)"/>
</svg>
