<svg id="Livello_1" data-name="Livello 1" xmlns="http://www.w3.org/2000/svg" viewBox="0 0 1263.6 311.59">
  <defs>
    <style>
      .cls-1, .cls-2 {
        fill: #fff;
      }

      .cls-1 {
        stroke: #ebdf00;
        stroke-linejoin: round;
        stroke-width: 3px;
      }
    </style>
  </defs>
  <path class="cls-1" d="M1607.46,478.48c-42.89-15.4-91.33-33.24-114-76.06-4.92-9.37-9.12-20.54-7.46-31.23,2-12.45,12.84-17.73,24.29-18.63,23.08-1.8,47,8.5,65.24,21.79,6.14,4.48,13.88-5.59,8.15-10.41-11.17-9.58-14.47-24.29-15.92-38.17a93.67,93.67,0,0,1,9.33-50.07c7.43-14.85,19.12-23.56,36.23-19.81a68.44,68.44,0,0,1,35.36,21.82c20.82,23.11,26.12,55.52,21.06,85.54a159.22,159.22,0,0,1-5.9,23.66c-1.35,4.06-6.94,24.29-13.22,15.37-4-5.44-3.47-16.1-3-22.45a102,102,0,0,1,5.93-26.65c12-34.24,35.95-62.73,59-90.21,5.52-6.6-4-16.14-9.51-9.51-26.64,31.89-55.13,65.75-65.65,106.91-4.09,15.68-7.77,42.54,6.11,54.75,15.3,13.43,27.34-7.94,31.65-20,13.56-38.17,14.88-83.28-9.55-117.53-18.87-26.44-63.32-53.26-90.74-22.73-14.19,15.82-20.54,39.84-20.82,60.66-.38,20.12,4.31,44.06,20.27,57.7l8.12-10.41c-21.13-15.44-49.83-26.72-76.34-23.18-27.34,3.65-38.76,27.17-31.23,52.61,16.69,56.94,78.42,81.23,128.94,99.17,8.19,2.95,11.7-10.07,3.47-12.95Z" transform="translate(-546.27 -239.79)"/>
  <path class="cls-2" d="M695.07,333V549h-28.8v-12.9a42.43,42.43,0,0,1,3-16.2c.9-2.4,2.4-5.1-.6-6-1.8-.6-2.7,1.8-3,2.7-7.2,21.6-27.6,34.8-51.6,34.8-39.9,0-67.8-33.6-67.8-79.2s27.9-79.2,67.8-79.2c24.6,0,44.7,13.5,51.6,34.2.3.9,1.2,3.9,3.6,3,2.7-.9.9-3.9,0-6.3a41.93,41.93,0,0,1-3-16.5V333Zm-28.8,139.2c0-28.5-18.9-52.8-46.2-52.8-30,0-45,24.3-45,52.8s15,52.8,45,52.8C647.37,525,666.27,500.68,666.27,472.18Z" transform="translate(-546.27 -239.79)"/>
  <path class="cls-2" d="M862.17,480.58H747.57c2.1,24.6,18.9,44.4,46.8,44.4,20.7,0,30.9-10.2,36.3-27.9h29.7c-6.3,28.5-27.3,54.3-66.6,54.3-48.3,0-74.7-35.7-74.7-79.2,0-46.2,30-79.2,74.1-79.2,34.2,0,69.9,22.5,69.9,77.1A54.8,54.8,0,0,1,862.17,480.58Zm-27.9-24c-1.8-22.5-16.2-38.4-39.6-38.4-28.8,0-41.4,17.7-45.6,38.4Z" transform="translate(-546.27 -239.79)"/>
  <path class="cls-2" d="M915.87,333V549h-28.8V333Z" transform="translate(-546.27 -239.79)"/>
  <path class="cls-2" d="M950.67,333h31.2v33.6h-31.2Zm1.2,62.4h28.8V549h-28.8Z" transform="translate(-546.27 -239.79)"/>
  <path class="cls-2" d="M1028.67,395.38l40.8,121.8a40.33,40.33,0,0,1,2.4,14.4c0,1.8.3,3.9,2.4,3.9s2.4-2.1,2.4-3.9a40.33,40.33,0,0,1,2.4-14.4l40.8-121.8h31.2L1095.87,549h-43.2l-55.2-153.6Z" transform="translate(-546.27 -239.79)"/>
  <path class="cls-2" d="M1299,480.58h-114.6c2.1,24.6,18.9,44.4,46.8,44.4,20.7,0,30.9-10.2,36.3-27.9h29.7c-6.3,28.5-27.3,54.3-66.6,54.3-48.3,0-74.7-35.7-74.7-79.2,0-46.2,30-79.2,74.1-79.2,34.2,0,69.9,22.5,69.9,77.1A54.8,54.8,0,0,1,1299,480.58Zm-27.9-24c-1.8-22.5-16.2-38.4-39.6-38.4-28.8,0-41.4,17.7-45.6,38.4Z" transform="translate(-546.27 -239.79)"/>
  <path class="cls-2" d="M1352.67,407.38c0,5.7-.9,10.2-3,16.5-.9,2.4-2.7,5.4,0,6.3,2.4.9,3.3-2.1,3.6-3,9-19.8,27-34.2,51.6-34.2,39.9,0,67.8,33.6,67.8,79.2s-27.9,79.2-67.8,79.2c-24,0-42.3-14.1-51.6-34.8-.3-.9-1.2-3.3-3-2.7-3,.9-1.5,3.6-.6,6,2.1,6.6,3,10.8,3,16.2V549h-28.8V333h28.8Zm91.2,64.8c0-28.5-15-52.8-45-52.8-27.3,0-46.2,24.3-46.2,52.8s18.9,52.8,46.2,52.8C1428.87,525,1443.87,500.68,1443.87,472.18Z" transform="translate(-546.27 -239.79)"/>
  <path class="cls-2" d="M1809.87,472.18c0,43.5-27.9,79.2-74.4,79.2s-74.4-35.7-74.4-79.2,27.9-79.2,74.4-79.2S1809.87,428.68,1809.87,472.18Zm-28.8,0c0-29.1-16.8-52.8-45.6-52.8s-45.6,23.7-45.6,52.8,16.8,52.8,45.6,52.8S1781.07,501.28,1781.07,472.18Z" transform="translate(-546.27 -239.79)"/>
</svg>
