<?xml version="1.0" encoding="utf-8"?>
<!-- Generator: Adobe Illustrator 25.3.0, SVG Export Plug-In . SVG Version: 6.00 Build 0)  -->
<svg version="1.1" id="Livello_1" xmlns="http://www.w3.org/2000/svg" xmlns:xlink="http://www.w3.org/1999/xlink" x="0px" y="0px"
	 viewBox="0 0 1920 1080" style="enable-background:new 0 0 1920 1080;" xml:space="preserve">
<g>
	<path d="M910.86,578.6v11.84h-3.91v11.78h-3.97v3.59h7.88v4.28h-11.78v3.59h3.91v4.28h-3.91v3.97h-4.28v-3.97h-3.97v-4.28h3.97
		v-3.59h-19.34v3.59h3.91v4.28h-3.91v3.97h-4.28v-3.97h-3.97v-4.28h3.97v-3.59h-11.84v-4.28h3.97v-15.75h11.78v-3.91h15.75v-3.97
		h15.75v-3.91h3.97v-3.97h8.19v4.29H910.86z M871.16,594.35h-3.59v11.47h3.59V594.35z M875.07,614.07h-3.59v3.59h3.59V614.07z
		 M879.04,590.45h-3.59v15.37h3.59V590.45z M886.91,590.45h-3.59v15.37h3.59V590.45z M894.79,586.48h-3.59v19.34h3.59V586.48z
		 M898.7,614.07h-3.59v3.59h3.59V614.07z M906.57,586.48h-7.5v15.44h3.59v-11.84h3.91V586.48z"/>
</g>
</svg>
