<svg id="Livello_1" data-name="Livello 1" xmlns="http://www.w3.org/2000/svg" viewBox="0 0 586.81 561.06">
  <defs>
    <style>
      .cls-1 {
        fill: #ebdf00;
      }
    </style>
  </defs>
  <path class="cls-1" d="M1002.78,174.3c-33.26,7.11-61.12,29.55-81.94,55.63-22.69,28.39-40.47,61.56-50.16,96.66a196.08,196.08,0,0,0-7.4,54.8c.27,17.45,3.06,35.31,9.51,51.58,11.89,30,34.11,56.48,63.07,71.28a107.79,107.79,0,0,0,46.78,12.25c8.57.17,17.49-.46,25.35-4.09s15.26-10.88,16.46-19.83a17,17,0,0,0-5.23-14.61c-3.86-3.69-11.1-4.39-14.85,0a129.08,129.08,0,0,0-30.91,77.38c-.73,14.75.82,30.91,11.61,42,10,10.32,25.41,14.56,39.1,17.27a158.26,158.26,0,0,0,53.57,1.26c2.41-.34,5.1-2.82,6.27-4.82a10.5,10.5,0,0,0-3.77-14.37,12.33,12.33,0,0,0-8.09-1.06c-2.07.3,1.74-.19-.34.05l-2.75.31c-1.7.17-3.41.31-5.12.42-3.42.23-6.85.33-10.27.3s-6.86-.17-10.27-.44c-1.71-.13-3.41-.3-5.12-.5-.39,0-2.85-.35-1.35-.16s.09,0-.17,0l-1.56-.24a139.82,139.82,0,0,1-19.88-4.63c-1.37-.43-2.73-.88-4.08-1.38-.63-.23-1.25-.49-1.87-.71-1.09-.39,1,.44,1,.42-.4-.2-.82-.35-1.22-.54-1.3-.59-2.58-1.24-3.83-1.95a39.42,39.42,0,0,0-3.58-2.3s1.69,1.39.84.65c-.24-.21-.5-.41-.75-.62-.57-.5-1.12-1-1.66-1.55s-.9-.94-1.32-1.43c-.21-.24-.4-.53-.62-.75.4.39,1.19,1.69.45.5s-1.49-2.57-2.17-3.9c-.52-1,.39.9.39.92a4.56,4.56,0,0,0-.36-1c-.27-.76-.51-1.53-.73-2.3-.4-1.46-.72-2.94-1-4.42a9,9,0,0,0-.16-1s.25,2.24.15,1c-.07-.81-.17-1.63-.23-2.44-.24-3-.29-6.08-.23-9.12s.24-6.09.54-9.12c.08-.81.17-1.63.27-2.44,0-.35.1-.7.13-1,0,0-.33,2.24-.13,1,.24-1.5.46-3,.74-4.51a118,118,0,0,1,4.73-17.64q.89-2.49,1.87-4.94c.13-.32.29-.64.4-1-.17.54-.79,1.82-.24.56.38-.86.76-1.71,1.16-2.56q2.15-4.63,4.69-9.05t5.46-8.61c.94-1.34,2-2.61,2.91-4-.15.22-1.49,1.88-.34.46.29-.36.58-.73.88-1.09.59-.73,1.2-1.44,1.81-2.16h-14.85a5.21,5.21,0,0,0,.7.71c-1.47-1-1.35-2-.73-.82s-.91-2.49-.56-1.35c.3,1,0,1.62-.11-1.39a4.38,4.38,0,0,1,0,.81c0,.08.66-3,.2-1.56-.08.26-.17.56-.23.82-.38,1.57,1.26-2.26.34-.86-.34.52-.73,1.07-1,1.61,1.16-2.17,1.31-1.57.7-.94-.3.31-.58.64-.89.94-.51.51-1.07,1-1.59,1.45-1,.93,2.27-1.55.59-.47-.4.26-.77.53-1.17.78-.72.45-1.45.87-2.21,1.25a10.43,10.43,0,0,0-1,.48c1.83-1.24,1.83-.71,1-.42-1.58.52-3.13.82-4.74,1.18,3.4-.77.33-.06-.51,0s-1.8.17-2.7.23c-1.79.13-3.59.2-5.38.21a85.4,85.4,0,0,1-10.36-.54c-.49-.05-1-.14-1.47-.17.12,0,2.77.41,1,.13-.78-.13-1.56-.24-2.33-.38-1.75-.3-3.48-.66-5.2-1.06a94.7,94.7,0,0,1-10.2-3c-1.59-.56-3.15-1.18-4.71-1.8-1.24-.5,2.09.91.87.36l-1.37-.6c-.9-.4-1.8-.82-2.7-1.25a113.72,113.72,0,0,1-18-10.9l-1-.72c-1.38-1,.56.43.68.53-.67-.6-1.43-1.13-2.14-1.7-1.49-1.22-3-2.47-4.39-3.76-2.66-2.38-5.21-4.88-7.66-7.47s-4.81-5.32-7-8.12c-.24-.31-.49-.68-.76-1,1.77,1.92.93,1.21.52.66-.55-.74-1.11-1.47-1.65-2.22q-1.71-2.37-3.32-4.81a125.73,125.73,0,0,1-10.27-18.87c-.16-.37-.31-.76-.48-1.13,1.26,2.61.51,1.22.23.53s-.6-1.51-.89-2.27c-.69-1.81-1.34-3.64-1.94-5.47-1.16-3.54-2.13-7.14-3-10.76q-.68-3-1.23-6c-.17-.94-.33-1.88-.49-2.82s-.77-2.74-.53-3.53c-.32,1,.24,1.95.1.67-.07-.59-.15-1.18-.21-1.77-.12-1.06-.23-2.13-.33-3.19q-.28-3.19-.44-6.39a165.74,165.74,0,0,1,.68-24.91c.11-1.06.22-2.13.35-3.19l.18-1.42c.18-1.58-.4,2.71,0,.3.32-2.12.64-4.25,1-6.37.73-4.13,1.59-8.25,2.58-12.33a224.3,224.3,0,0,1,7.5-24.6c.72-1.93,1.45-3.86,2.21-5.78l1.23-3c.19-.45.4-.89.56-1.35l-.49,1.17c.19-.45.38-.9.58-1.34,1.63-3.8,3.37-7.55,5.18-11.26a277.13,277.13,0,0,1,25.53-42.36l1.57-2.12,1-1.31c.24-.32,1.12-1.52.18-.25-1.07,1.44.25-.31.4-.5l.82-1c.69-.86,1.38-1.71,2.08-2.56q3.66-4.46,7.56-8.72a172.85,172.85,0,0,1,16.77-16c.66-.55,1.33-1.1,2-1.64.33-.28.67-.54,1-.81,1.38-1.11-.42.35-.59.45,1.73-1,3.3-2.48,4.94-3.63,3.07-2.15,6.22-4.18,9.46-6.06s6.73-3.69,10.23-5.28c.76-.35,1.6-.62,2.33-1-2.58,1.47-.39.18.45-.16q2.84-1.11,5.73-2.06a105.11,105.11,0,0,1,10.91-2.94c5.37-1.15,9-7.74,7.33-12.91a10.75,10.75,0,0,0-12.92-7.34Z" transform="translate(-863.26 -88.55)"/>
  <path class="cls-1" d="M1054.08,171.41c.07-2,.23-4.06.5-6.09l-.38,2.79a60.71,60.71,0,0,1,4.09-15l-1.06,2.51a68.18,68.18,0,0,1,8.86-15l-1.64,2.12a81.23,81.23,0,0,1,14.11-14l-2.13,1.64a92.32,92.32,0,0,1,20-11.7l-2.51,1.06a92.23,92.23,0,0,1,23.27-6.43l-2.79.38a97.77,97.77,0,0,1,25.52.22l-2.79-.38a132,132,0,0,1,33.59,9.43l-2.5-1c16.2,6.89,31.15,16.4,45.08,27.14l-2.13-1.65q6.15,4.77,12.06,9.83c2,1.76,4.6,3.2,7.42,3.07a10.82,10.82,0,0,0,6.37-2.25c4.32-3.34,5-8.77,2.7-13.54-.23-.49-.46-1-.67-1.46l1.06,2.51a28.82,28.82,0,0,1-1.93-7.17l.38,2.79a31.9,31.9,0,0,1,0-7.75l-.37,2.79a37.2,37.2,0,0,1,2.5-9.14l-1.06,2.51a42.36,42.36,0,0,1,5.29-9.06l-1.64,2.13a42.65,42.65,0,0,1,7.47-7.48l-2.13,1.64a39.29,39.29,0,0,1,8.19-4.79l-2.51,1.06a50.41,50.41,0,0,1,12.55-3.42l-2.8.38a62.06,62.06,0,0,1,16.11.08l-2.8-.38a84.46,84.46,0,0,1,21.2,5.95l-2.51-1.06a87.56,87.56,0,0,1,19.1,11l-2.12-1.64a60.88,60.88,0,0,1,10.69,10.59l-1.64-2.12a47.17,47.17,0,0,1,5.94,10.15l-1.06-2.51a54.63,54.63,0,0,1,3.45,13.42l-.38-2.79a193.05,193.05,0,0,1,1.09,22.3q.13,11.76-.11,23.51-.52,23.49-2.66,46.93-1.2,13.15-2.91,26.28c-.33,2.46,1.4,5.75,3.07,7.42a10.49,10.49,0,0,0,14.85,0l1.64-2.12a10.52,10.52,0,0,0,1.44-5.3q4.39-33.81,5.43-67.93.51-17,.16-34.08c-.23-11.11-.53-22.8-4.82-33.22A61.46,61.46,0,0,0,1329,110.05a101.31,101.31,0,0,0-27.67-15.74,81.91,81.91,0,0,0-31.24-5.73c-10.45.27-21.48,2.86-30.22,8.81-15.86,10.81-26.38,30.94-21.21,50.22a42,42,0,0,0,2.94,7.5l16.49-12.72c-13.79-11.79-28.48-22.75-44.45-31.43-15.66-8.52-32.7-15.14-50.43-17.6a108.49,108.49,0,0,0-26.33-1,100.83,100.83,0,0,0-23.47,5.12c-14.9,5.32-28.88,13.79-39.68,25.46a79.41,79.41,0,0,0-13.2,18.84,74.69,74.69,0,0,0-7.1,24.31c-.21,1.75-.33,3.52-.39,5.28-.17,5.5,5,10.75,10.5,10.5a10.7,10.7,0,0,0,10.5-10.5Z" transform="translate(-863.26 -88.55)"/>
  <path class="cls-1" d="M1115.92,608.69a143.08,143.08,0,0,0,124.6,38.82A136,136,0,0,0,1297.38,623c17.32-12.73,32.07-28.91,42.24-47.93a132.58,132.58,0,0,0,7.09-15.59,57.72,57.72,0,0,0,3.18-14.76c1-9.8-1.32-21.67-9.36-28.19a28.3,28.3,0,0,0-8.91-5l-2.79,20.63c20.93,1.42,40.19-8.43,55.85-21.47a147.2,147.2,0,0,0,19.65-20.13,263.23,263.23,0,0,0,18.73-25.92c11-17.47,20-36.8,24.18-57.08,4-19.31,4-39.32-1.47-58.36-5.08-17.82-14.8-35-29-47-2.22-1.89-4.54-3.67-6.91-5.38-2.09-1.5-5.71-1.71-8.09-1.05a10.5,10.5,0,0,0-7.34,12.91,12,12,0,0,0,4.83,6.28q1.18.85,2.34,1.74l-2.12-1.64A78,78,0,0,1,1413,328.74l-1.64-2.13a89.6,89.6,0,0,1,11.34,19.65l-1.06-2.51a104,104,0,0,1,7,26l-.38-2.79a110.84,110.84,0,0,1-.08,29l.37-2.79a142.48,142.48,0,0,1-10,35.63l1-2.51c-7.23,17.08-17.19,32.86-28.49,47.51l1.64-2.12a149,149,0,0,1-26.19,26.86l2.13-1.65a86.43,86.43,0,0,1-18.55,11.06l2.51-1.05a63.07,63.07,0,0,1-15.42,4.33l2.8-.38a56.48,56.48,0,0,1-11.18.37c-5.2-.36-9.66,4.26-10.31,9.1-.72,5.37,2.53,9.77,7.52,11.52.37.13.73.27,1.1.42l-2.51-1.06a14.85,14.85,0,0,1,3.17,1.87l-2.12-1.65a15.22,15.22,0,0,1,2.48,2.53l-1.64-2.13a18.27,18.27,0,0,1,2.14,3.74l-1.06-2.5a24.38,24.38,0,0,1,1.56,5.89l-.37-2.79a39.31,39.31,0,0,1-.1,10.28l.37-2.79a52.65,52.65,0,0,1-3.7,13l1.05-2.5a128.9,128.9,0,0,1-16.73,28.53l1.64-2.13a136.08,136.08,0,0,1-24.13,24.07l2.13-1.64a135,135,0,0,1-29.4,17.23l2.51-1.06a126.37,126.37,0,0,1-31.81,8.78l2.79-.38a131.15,131.15,0,0,1-34.79,0l2.79.37a137.05,137.05,0,0,1-34.09-9.3l2.51,1a132.81,132.81,0,0,1-29.23-16.94l2.13,1.65a126.79,126.79,0,0,1-12-10.49c-3.9-3.87-11-4.19-14.85,0a10.68,10.68,0,0,0,0,14.85Z" transform="translate(-863.26 -88.55)"/>
  <path class="cls-1" d="M1105.45,244.74c-28.5-9.24-55.28,13.25-68.07,36.86-6.63,12.23-10.6,26-12.53,39.78a153.65,153.65,0,0,0-1.67,22.47,156.46,156.46,0,0,0,2,22.87A139.92,139.92,0,0,0,1040.72,412c2.63,4.83,9.69,6.78,14.36,3.77a10.73,10.73,0,0,0,3.77-14.37q-3.12-5.72-5.67-11.71l1.06,2.51a134.62,134.62,0,0,1-9.22-33.94l.37,2.79a137,137,0,0,1,0-36l-.37,2.79a123.69,123.69,0,0,1,8.1-30.85l-1.06,2.51a83.65,83.65,0,0,1,10.69-18.36l-1.64,2.13a72.07,72.07,0,0,1,12.61-12.8l-2.12,1.64a52.37,52.37,0,0,1,11.55-6.85l-2.51,1.06a40.32,40.32,0,0,1,9.75-2.69l-2.79.38a34.86,34.86,0,0,1,9.07,0l-2.79-.38a35.76,35.76,0,0,1,6,1.4c5.22,1.69,11.69-2,12.91-7.33a10.73,10.73,0,0,0-7.33-12.92Z" transform="translate(-863.26 -88.55)"/>
</svg>
