<?xml version="1.0" encoding="utf-8"?>
<!-- Generator: Adobe Illustrator 25.3.0, SVG Export Plug-In . SVG Version: 6.00 Build 0)  -->
<svg version="1.1" id="Livello_1" xmlns="http://www.w3.org/2000/svg" xmlns:xlink="http://www.w3.org/1999/xlink" x="0px" y="0px"
	 viewBox="0 0 700 700" style="enable-background:new 0 0 700 700;" xml:space="preserve">
<path d="M471,527.3H291.6c-30.1,0-54.6-24.5-54.6-54.6V185.6c0-4.8,3.4-9.1,8.1-10.1l87.7-18.9c0.8-0.1,1.4-0.2,2.2-0.2h180.1
	c5.7,0,10.3,4.6,10.3,10.3v306.1C525.5,502.8,501,527.3,471,527.3L471,527.3z M257.6,193.9v278.9c0,18.7,15.2,34,34,34H471
	c18.7,0,34-15.2,34-34V177H336L257.6,193.9z"/>
<path d="M182.3,199.6l-6.7-30.8c-5.9-27.5,11.5-54.6,39-60.5l222.8-48.1c27.5-5.9,54.6,11.5,60.5,39l6.7,30.8
	c1.2,5.6-2.3,11-7.9,12.2l-302.2,65.2C189,208.7,183.5,205.2,182.3,199.6L182.3,199.6z M441.9,80.3l-222.8,48.1
	c-16.4,3.5-26.8,19.6-23.2,36l4.5,20.8l282-60.9l-4.5-20.8C474.4,87.2,458.3,76.8,441.9,80.3L441.9,80.3z"/>
<path d="M288,113.3c-4.8,0-9.1-3.4-10.1-8.1l-2.2-10.1c-6-27.8,11.7-55.2,39.5-61.2s55.2,11.7,61.2,39.5l2.2,10.1
	c1.2,5.6-2.3,11-7.9,12.2l-80.6,17.4C289.4,113.2,288.7,113.3,288,113.3L288,113.3z M319.6,54c-16.6,3.6-27.3,20.1-23.7,36.8
	l60.5-13.1C352.7,61,336.2,50.4,319.6,54z"/>
<path d="M515.2,249.1h-268c-5.7,0-10.3-4.6-10.3-10.3s4.6-10.3,10.3-10.3h268c5.7,0,10.3,4.6,10.3,10.3S520.8,249.1,515.2,249.1z"/>
<path d="M443.1,465.5c-5.7,0-10.3-4.6-10.3-10.3V238.8c0-5.7,4.6-10.3,10.3-10.3s10.3,4.6,10.3,10.3v216.4
	C453.4,460.9,448.8,465.5,443.1,465.5z"/>
<path d="M381.3,465.5c-5.7,0-10.3-4.6-10.3-10.3V238.8c0-5.7,4.6-10.3,10.3-10.3s10.3,4.6,10.3,10.3v216.4
	C391.6,460.9,387,465.5,381.3,465.5z"/>
<path d="M319.4,465.5c-5.7,0-10.3-4.6-10.3-10.3V238.8c0-5.7,4.6-10.3,10.3-10.3s10.3,4.6,10.3,10.3v216.4
	C329.7,460.9,325.1,465.5,319.4,465.5z"/>
<path d="M515.2,465.5h-268c-5.7,0-10.3-4.6-10.3-10.3s4.6-10.3,10.3-10.3h268c5.7,0,10.3,4.6,10.3,10.3S520.8,465.5,515.2,465.5z"/>
</svg>
