<?xml version="1.0" encoding="utf-8"?>
<!-- Generator: Adobe Illustrator 25.3.0, SVG Export Plug-In . SVG Version: 6.00 Build 0)  -->
<svg   version="1.1" id="Livello_1" xmlns="http://www.w3.org/2000/svg" xmlns:xlink="http://www.w3.org/1999/xlink" x="0px" y="0px"
	 viewBox="0 0 700 700" style="enable-background:new 0 0 700 700;" xml:space="preserve" > 
</style>
<path d="M473.9,538.5H150.8c-5.9,0-10.8-4.8-10.8-10.8l0-495.4c0-5.9,4.8-10.8,10.8-10.8h231.3c3.1,0,6,1.3,8.1,3.7l91.8,104.4
	c1.7,2,2.7,4.5,2.7,7.1v113c0,2.9-1.1,5.6-3.2,7.6L351.5,387.2l-15.1,30.3l30.3-15.1l99.6-99.6c3.1-3.1,7.7-4,11.7-2.3
	c4,1.7,6.6,5.6,6.6,9.9v217.3C484.6,533.6,479.8,538.5,473.9,538.5L473.9,538.5z M161.6,516.9h301.5l0-180.6l-82.4,82.4
	c-0.8,0.8-1.8,1.5-2.8,2l-60.7,30.4c-4.2,2.1-9.2,1.2-12.4-2c-3.3-3.3-4.1-8.3-2-12.4l30.4-60.7c0.5-1,1.2-2,2-2.8l128-128V140.7
	l-85.9-97.6H161.6L161.6,516.9z"/>
<path d="M473.9,147.4h-91.7c-5.9,0-10.8-4.8-10.8-10.8V32.3c0-5.9,4.8-10.8,10.8-10.8c5.9,0,10.8,4.8,10.8,10.8v93.5h81
	c5.9,0,10.8,4.8,10.8,10.8C484.6,142.6,479.8,147.4,473.9,147.4L473.9,147.4z"/>
<path d="M312.3,452.3c-2.8,0-5.6-1.1-7.6-3.2c-3.3-3.3-4.1-8.3-2-12.4L333,376c0.5-1,1.2-2,2-2.8l147.9-147.9c4-4,11.2-4,15.2,0
	l30.4,30.4c2,2,3.2,4.8,3.2,7.6s-1.1,5.6-3.2,7.6L380.7,418.8c-0.8,0.8-1.8,1.5-2.8,2l-60.7,30.4
	C315.6,451.9,313.9,452.3,312.3,452.3L312.3,452.3z M351.5,387.2l-15.1,30.3l30.3-15.1l139-139l-15.1-15.1L351.5,387.2z"/>
<path d="M520.9,274.1c-2.9,0-5.6-1.1-7.6-3.2l-30.4-30.4c-2-2-3.2-4.8-3.2-7.6s1.1-5.6,3.2-7.6l24.1-24.1c9.8-9.8,25.7-9.8,35.5,0
	l10.1,10.1c9.8,9.8,9.8,25.7,0,35.5l-24.1,24.1C526.5,272.9,523.8,274.1,520.9,274.1L520.9,274.1z M505.8,232.9l15.1,15.1l16.5-16.5
	c0.9-0.9,1-1.8,1-2.5s-0.2-1.6-1-2.5l-10.1-10.1c-1.7-1.7-3.3-1.7-5,0L505.8,232.9z"/>
<path d="M420,204.6H193.9c-5.9,0-10.8-4.8-10.8-10.8c0-5.9,4.8-10.8,10.8-10.8H420c5.9,0,10.8,4.8,10.8,10.8
	C430.8,199.8,426,204.6,420,204.6z"/>
<path d="M398.5,333.9H193.9c-5.9,0-10.8-4.8-10.8-10.8s4.8-10.8,10.8-10.8h204.6c5.9,0,10.8,4.8,10.8,10.8
	C409.2,329.1,404.4,333.9,398.5,333.9z"/>
<path d="M312.3,452.3H193.9c-5.9,0-10.8-4.8-10.8-10.8c0-5.9,4.8-10.8,10.8-10.8h118.5c5.9,0,10.8,4.8,10.8,10.8
	C323.1,447.5,318.3,452.3,312.3,452.3z"/>
	
</svg>
