<svg id="Livello_1" data-name="Livello 1" xmlns="http://www.w3.org/2000/svg" viewBox="0 0 543.09 340.59">
  <path d="M605.48,240.38C558.56,191.59,462.85,109.72,350,109.72S141.53,191.6,94.52,240.39a57,57,0,0,0,0,79.25c47,48.79,142.71,130.67,255.48,130.67h.25c112.76-.17,208.3-81.88,255.22-130.67a56.82,56.82,0,0,0,0-79.25Zm-255,175.89H350c-75.09,0-136.18-61.09-136.18-136.27s61.09-136.18,136.27-136.18S486.36,204.91,486.36,280s-61,136.1-135.92,136.27ZM119,296a23.15,23.15,0,0,1,0-32.16c20-20.78,49.55-48,85.36-71.27a168.68,168.68,0,0,0-.17,174.62C168.43,344,138.9,316.83,119,296Zm462.09,0c-19.94,20.7-49.47,47.86-85.19,71.19a168.68,168.68,0,0,0-.17-174.62c35.8,23.33,65.33,50.57,85.36,71.27a23,23,0,0,1,0,32.16Z" transform="translate(-78.48 -109.72)"/>
  <path d="M350,167.66A112.43,112.43,0,1,0,462.43,280.08,112.52,112.52,0,0,0,350,167.66Zm0,190.91a78.49,78.49,0,1,1,78.48-78.48A78.57,78.57,0,0,1,350,358.57Z" transform="translate(-78.48 -109.72)"/>
  <path d="M350,217.72a62.5,62.5,0,0,0-62.45,62.45,17,17,0,0,0,33.94,0A28.52,28.52,0,0,1,350,251.66a17,17,0,1,0,0-33.94Z" transform="translate(-78.48 -109.72)"/>
</svg>
