<?xml version="1.0" encoding="utf-8"?>
<!-- Generator: Adobe Illustrator 25.3.0, SVG Export Plug-In . SVG Version: 6.00 Build 0)  -->
<svg version="1.1" id="Livello_1" xmlns="http://www.w3.org/2000/svg" xmlns:xlink="http://www.w3.org/1999/xlink" x="0px" y="0px"
	 viewBox="0 0 107.3 87.49" style="enable-background:new 0 0 107.3 87.49;" xml:space="preserve">
<style type="text/css">
	.st0{fill:none;stroke:#FFFFFF;stroke-miterlimit:10;}
</style>
<path class="st0" d="M100.01,42.77c0-3.69-2.82-6.08-6.95-6.08H66.47c0.14-0.8,0.36-1.59,0.51-2.39c1.67-7.17,3.26-13.98,2.17-18.4
	c-0.8-3.4-1.96-8.62-6.3-10.57c-1.01-0.51-2.03-0.72-3.11-0.72c-2.53,0-5,1.52-6.45,4.13c-1.52,2.61-1.3,5.5-1.09,8.11
	c0.07,0.65,0.07,1.23,0.14,1.88c0.07,2.46-5.72,12.75-9.2,18.9c-0.87,1.59-1.74,3.04-2.39,4.27c-0.43,0.36-1.67,1.16-3.11,2.1
	c-0.51-2.61-2.75-4.56-5.43-4.56H7.3V82.9h24.84c2.39,0,4.49-1.59,5.21-3.84c1.38,0,2.39,0.07,3.33,0.43
	c0.58,0.22,1.01,0.51,1.52,0.8c1.3,0.87,2.82,1.81,6.37,1.81h0.14H84.8c4.13,0,6.95-2.53,6.95-6.23c0-1.67-0.58-3.19-1.52-4.35
	c2.9-0.87,5-3.55,5-6.66c0-1.81-0.72-3.55-1.81-4.85c2.61-0.94,4.42-3.26,4.42-6.16c0-1.88-0.72-3.55-1.81-4.85
	C98.41,47.84,100.01,45.52,100.01,42.77L100.01,42.77z"/>
</svg>
