<?xml version="1.0" encoding="utf-8"?>
<!-- Generator: Adobe Illustrator 25.3.0, SVG Export Plug-In . SVG Version: 6.00 Build 0)  -->
<svg version="1.1" id="Livello_1" xmlns="http://www.w3.org/2000/svg" xmlns:xlink="http://www.w3.org/1999/xlink" x="0px" y="0px"
	 viewBox="0 0 87.49 87.49" style="enable-background:new 0 0 87.49 87.49;" xml:space="preserve">
<style type="text/css">
	.st0{fill:none;stroke:#FFFFFF;stroke-miterlimit:10;}
</style>
<g>
	<g>
		<path class="st0" d="M69.85,4.6h-52.2c-3.46,0-6.78,1.37-9.23,3.82S4.6,14.19,4.6,17.65v52.2c0,3.46,1.37,6.78,3.82,9.23
			c2.45,2.45,5.77,3.82,9.23,3.82h52.2c3.46,0,6.78-1.37,9.23-3.82s3.82-5.77,3.82-9.23v-52.2c0-3.46-1.37-6.78-3.82-9.23
			S73.31,4.6,69.85,4.6L69.85,4.6z M76.37,69.85L76.37,69.85c0,1.73-0.69,3.39-1.91,4.61c-1.22,1.22-2.88,1.91-4.61,1.91h-52.2
			c-1.73,0-3.39-0.69-4.61-1.91c-1.22-1.22-1.91-2.88-1.91-4.61v-52.2c0-1.73,0.69-3.39,1.91-4.61c1.22-1.22,2.88-1.91,4.61-1.91
			h52.2c1.73,0,3.39,0.69,4.61,1.91c1.22,1.22,1.91,2.88,1.91,4.61L76.37,69.85z"/>
		<path class="st0" d="M43.75,24.17c-5.19,0-10.17,2.06-13.84,5.73c-3.67,3.67-5.73,8.65-5.73,13.84s2.06,10.17,5.73,13.84
			c3.67,3.67,8.65,5.73,13.84,5.73s10.17-2.06,13.84-5.73c3.67-3.67,5.73-8.65,5.73-13.84s-2.06-10.17-5.73-13.84
			C53.92,26.24,48.94,24.17,43.75,24.17z M43.75,56.8c-3.46,0-6.78-1.37-9.23-3.82c-2.45-2.45-3.82-5.77-3.82-9.23
			s1.37-6.78,3.82-9.23c2.45-2.45,5.77-3.82,9.23-3.82c3.46,0,6.78,1.37,9.23,3.82c2.45,2.45,3.82,5.77,3.82,9.23
			s-1.37,6.78-3.82,9.23C50.53,55.42,47.21,56.8,43.75,56.8z"/>
		<path class="st0" d="M69.85,22.54c0,2.7-2.19,4.89-4.89,4.89c-2.7,0-4.89-2.19-4.89-4.89c0-2.7,2.19-4.89,4.89-4.89
			C67.66,17.65,69.85,19.84,69.85,22.54"/>
	</g>
</g>
</svg>
