<svg id="Livello_1" data-name="Livello 1" xmlns="http://www.w3.org/2000/svg" viewBox="0 0 419.98 516.92">
  <path d="M473.86,538.46H150.78A10.77,10.77,0,0,1,140,527.69V32.31a10.77,10.77,0,0,1,10.77-10.77H382.1a10.75,10.75,0,0,1,8.09,3.66l91.75,104.35a10.75,10.75,0,0,1,2.69,7.11v113a10.76,10.76,0,0,1-3.16,7.61L351.54,387.17,336.4,417.45l30.28-15.14,99.56-99.56a10.77,10.77,0,0,1,18.39,7.61V527.69a10.77,10.77,0,0,1-10.77,10.77Zm-312.3-21.54H463.1V336.36l-82.42,82.42a10.7,10.7,0,0,1-2.79,2l-60.74,30.37a10.77,10.77,0,0,1-14.45-14.45L333.06,376a10.87,10.87,0,0,1,2-2.79l128-128V140.73L377.25,43.08H161.57Z" transform="translate(-140.01 -21.54)"/>
  <path d="M473.86,147.41H382.13a10.77,10.77,0,0,1-10.77-10.77V32.34a10.77,10.77,0,1,1,21.54,0v93.53h81a10.77,10.77,0,0,1,0,21.54Z" transform="translate(-140.01 -21.54)"/>
  <path d="M312.32,452.31a10.78,10.78,0,0,1-9.64-15.59L333.05,376a10.75,10.75,0,0,1,2-2.8L482.93,225.33a11.07,11.07,0,0,1,15.22,0l30.37,30.37a10.76,10.76,0,0,1,0,15.23L380.66,418.79a10.7,10.7,0,0,1-2.79,2l-60.74,30.36a10.82,10.82,0,0,1-4.81,1.14Zm39.21-65.13-15.14,30.28,30.28-15.14,139-139-15.14-15.14Z" transform="translate(-140.01 -21.54)"/>
  <path d="M520.92,274.08a10.76,10.76,0,0,1-7.61-3.16l-30.37-30.37a10.74,10.74,0,0,1,0-15.22l24.12-24.12a25.08,25.08,0,0,1,35.47,0l10.12,10.12a25.09,25.09,0,0,1,0,35.47l-24.12,24.12a10.74,10.74,0,0,1-7.61,3.16Zm-15.15-41.14,15.15,15.14,16.51-16.51a3.54,3.54,0,0,0,0-5l-10.12-10.12c-1.74-1.73-3.28-1.73-5,0Z" transform="translate(-140.01 -21.54)"/>
  <path d="M420,204.65H193.86a10.77,10.77,0,0,1,0-21.54H420a10.77,10.77,0,0,1,0,21.54Z" transform="translate(-140.01 -21.54)"/>
  <path d="M398.47,333.88H193.85a10.77,10.77,0,1,1,0-21.54H398.47a10.77,10.77,0,0,1,0,21.54Z" transform="translate(-140.01 -21.54)"/>
  <path d="M312.32,452.34H193.86a10.77,10.77,0,0,1,0-21.54H312.32a10.77,10.77,0,0,1,0,21.54Z" transform="translate(-140.01 -21.54)"/>
</svg>
