<?xml version="1.0" encoding="utf-8"?>
<!-- Generator: Adobe Illustrator 25.3.0, SVG Export Plug-In . SVG Version: 6.00 Build 0)  -->
<svg version="1.1" id="Livello_1" xmlns="http://www.w3.org/2000/svg" xmlns:xlink="http://www.w3.org/1999/xlink" x="0px" y="0px"
	 viewBox="0 0 107.3 87.49" style="enable-background:new 0 0 107.3 87.49;" xml:space="preserve">
<style type="text/css">
	.st0{fill:none;stroke:#FFFFFF;stroke-miterlimit:10;}
</style>
<g>
	<path class="st0" d="M83.59,7.09c-20.02-3.33-40.46-3.33-60.48,0c-11.45,2.4-18.6,9.79-18.6,19.43v34.25
		c0,9.79,7.14,17.08,18.79,19.57l0,0c9.96,1.68,20.04,2.53,30.14,2.54c10.13,0,20.25-0.84,30.24-2.5
		c11.35-2.15,18.69-9.79,18.69-19.57V26.57C102.38,16.83,95.04,9.2,83.59,7.09L83.59,7.09z M69.4,45.95L44.93,60.63
		c-0.38,0.23-0.82,0.35-1.27,0.34c-0.42,0-0.84-0.1-1.22-0.29c-0.78-0.48-1.25-1.34-1.22-2.25V29.07c0.01-0.88,0.47-1.7,1.22-2.15
		c0.78-0.42,1.72-0.42,2.5,0L69.4,41.6c0.72,0.46,1.15,1.25,1.15,2.1c0,0.85-0.44,1.65-1.15,2.1L69.4,45.95z"/>
</g>
</svg>
