<?xml version="1.0" encoding="utf-8"?>
<!-- Generator: Adobe Illustrator 25.3.0, SVG Export Plug-In . SVG Version: 6.00 Build 0)  -->
<svg version="1.1" id="Livello_1" xmlns="http://www.w3.org/2000/svg" xmlns:xlink="http://www.w3.org/1999/xlink" x="0px" y="0px"
	 viewBox="0 0 581.47 710.07" style="enable-background:new 0 0 581.47 710.07;" xml:space="preserve">
<style type="text/css">
	.st0{fill:#FFFFFF;}
</style>
<g>
	<g>
		<g>
			<path class="st0" d="M346.23,138.12c-2.78-11.35-5.48-22.93-5.3-34.69c0.09-5.62,0.89-11.21,2.74-16.53
				c0.47-1.35,1-2.67,1.61-3.95c0.36-0.76,0.92-2.49,1.99-2.49c0.93,0,1.7,1.24,2.11,1.94c0.68,1.17,0.97,2.47,1.29,3.77
				c1.76,7.13,2.31,14.48,1.75,21.79c-0.13,1.73,2.48,1.97,2.95,0.4c2.88-9.67,6.83-18.99,11.81-27.78c2.43-4.29,5.1-8.46,8-12.45
				c2.61-3.59,5.68-7.25,9.83-9.07c2.26-0.98,4.49-1.2,6.55,0.33c1.69,1.25,2.9,3.17,3.58,5.14c1.53,4.42,0.85,9.12-0.79,13.41
				c-1.8,4.73-4.63,9.08-7.3,13.35c-2.72,4.36-5.58,8.63-8.56,12.81c-6.69,9.37-14.05,18.24-21.98,26.58
				c-1.33,1.4,0.79,3.52,2.12,2.12c7.59-7.98,14.64-16.45,21.12-25.35c3.29-4.52,6.43-9.15,9.41-13.88
				c2.88-4.57,5.82-9.2,7.84-14.22c1.84-4.58,2.65-9.68,1.36-14.52c-1.16-4.35-4.45-9.08-9.28-9.57c-4.82-0.49-9.54,3.2-12.62,6.52
				c-3.49,3.76-6.35,8.17-9.05,12.51c-6.45,10.35-11.47,21.58-14.95,33.26c0.98,0.13,1.96,0.27,2.95,0.4
				c0.55-7.25,0-14.58-1.64-21.67c-0.63-2.73-1.35-5.68-3.57-7.6c-2.22-1.92-5.06-1.4-6.63,1.03c-1.68,2.59-2.72,5.84-3.57,8.78
				c-0.85,2.95-1.39,5.98-1.73,9.02c-0.71,6.53-0.3,13.12,0.59,19.61c1.01,7.35,2.69,14.58,4.46,21.78
				C343.8,140.79,346.69,139.99,346.23,138.12L346.23,138.12z"/>
		</g>
	</g>
	<g>
		<g>
			<path class="st0" d="M367.4,133.04c-6.32,6.37-11.43,13.88-15,22.11c-0.54,1.24,0.66,2.96,2.05,2.05
				c5.02-3.28,9.47-7.32,13.18-12.04c-0.79-0.61-1.57-1.21-2.36-1.82c-2.92,4.28-5.01,9.08-6.18,14.13c-0.23,1,0.72,2.29,1.85,1.85
				c6.76-2.69,12.02-8.11,14.43-14.98c0.64-1.82-2.26-2.61-2.89-0.8c-2.04,5.79-6.63,10.61-12.34,12.88
				c0.62,0.62,1.23,1.23,1.85,1.85c1.12-4.82,3.1-9.32,5.88-13.41c0.95-1.39-1.3-3.16-2.36-1.82c-3.54,4.52-7.76,8.43-12.57,11.57
				c0.68,0.68,1.37,1.37,2.05,2.05c3.48-8.01,8.39-15.3,14.53-21.5C370.88,133.79,368.76,131.67,367.4,133.04L367.4,133.04z"/>
		</g>
	</g>
	<g>
		<g>
			<path class="st0" d="M372.79,115.49c7.5,14.58,13.08,30.11,16.67,46.11c3.58,15.99,5.16,32.42,4.66,48.8
				c-0.28,9.22-1.22,18.41-2.82,27.49c-0.33,1.89,2.56,2.7,2.89,0.8c2.92-16.48,3.73-33.3,2.39-49.98
				c-1.33-16.6-4.72-33.04-10.13-48.79c-3.06-8.9-6.76-17.58-11.06-25.95C374.5,112.26,371.91,113.78,372.79,115.49L372.79,115.49z"
				/>
		</g>
	</g>
	<g>
		<g>
			<path class="st0" d="M338.53,121.82c0.21-0.48-0.09-0.1-0.03-0.08c0.15,0.04,0.32,0.03,0.45,0.15c0.29,0.28,0.12,0.83-0.01,1.18
				c-0.45,1.2-1.51,2.21-2.39,3.1c-1.63,1.64-3.49,2.99-5.51,4.12c-4.07,2.29-8.6,3.61-13.1,4.76c-9.26,2.36-19.32,3.92-27.12,9.86
				c-4.84,3.68-8.18,8.8-11.16,14.02c-3.26,5.69-6.36,11.48-9.32,17.33c-6.03,11.88-11.47,24.07-16.32,36.48
				c-5.47,14.01-10.16,28.32-14.06,42.84c-0.5,1.87,2.39,2.66,2.89,0.8c7.29-27.15,17.36-53.53,30.08-78.6
				c3.12-6.16,6.38-12.27,9.85-18.24c3.04-5.22,6.51-10.24,11.7-13.52c8.62-5.46,19.2-6.4,28.78-9.32c5.24-1.6,10.39-3.81,14.5-7.52
				c2.1-1.89,5.13-4.87,4.19-8c-0.73-2.43-4.82-3.58-5.99-0.87C335.18,122.05,337.77,123.58,338.53,121.82L338.53,121.82z"/>
		</g>
	</g>
	<g>
		<g>
			<path class="st0" d="M335.78,173.04c-15.1,21.87-27.86,45.31-38.07,69.84c-2.9,6.97-5.59,14.04-8.07,21.17
				c-0.64,1.83,2.26,2.61,2.89,0.8c8.69-25,20.02-49.05,33.75-71.67c3.84-6.33,7.87-12.54,12.08-18.63
				C339.47,172.96,336.87,171.46,335.78,173.04L335.78,173.04z"/>
		</g>
	</g>
	<g>
		<g>
			<path class="st0" d="M394.03,237.54c-9.08-18.75-20.26-36.6-34.15-52.17c-3.91-4.38-8.03-8.56-12.37-12.52
				c-1.42-1.3-3.55,0.82-2.12,2.12c15.29,13.94,27.76,30.69,37.96,48.64c2.87,5.06,5.56,10.21,8.09,15.44
				C392.28,240.79,394.87,239.27,394.03,237.54L394.03,237.54z"/>
		</g>
	</g>
	<g>
		<g>
			<path class="st0" d="M239.94,255.57c-6.5,19.55-26.56,29.39-40.12,43.37c-3.59,3.7-6.87,7.75-9.43,12.23
				c-3.27,5.71-5.36,12.09-6.6,18.54c-2.19,11.42-1.65,23.3,1.36,34.52c3.38,12.59,9.87,24.32,18.95,33.68
				c1.35,1.39,3.47-0.73,2.12-2.12c-15.88-16.39-23.5-40.44-19.93-63c0.99-6.25,2.74-12.48,5.62-18.12
				c2.38-4.66,5.54-8.83,9.1-12.64c6.87-7.32,15.04-13.22,22.6-19.78c8.26-7.15,15.72-15.34,19.23-25.89
				C243.45,254.53,240.55,253.74,239.94,255.57L239.94,255.57z"/>
		</g>
	</g>
	<g>
		<g>
			<path class="st0" d="M227.15,408.42c13.04,4.05,17.24,19.4,24.74,29.21c2.01,2.63,4.27,4.98,6.93,6.95
				c2.94,2.17,6.25,3.79,9.59,5.24c7.24,3.14,14.6,6.04,21.9,9.05c8.41,3.46,16.82,6.93,25.23,10.39c1.11,0.46,2.1-0.85,1.85-1.85
				c-5.03-19.51-6.79-40.82-19.04-57.59c-3.03-4.15-6.59-7.81-10.75-10.83c-1.56-1.14-3.06,1.46-1.51,2.59
				c15.55,11.3,20.65,31.16,24.45,48.95c1.26,5.91,2.46,11.83,3.97,17.68c0.62-0.62,1.23-1.23,1.85-1.85
				c-15.05-6.2-30.14-12.29-45.15-18.59c-3.25-1.36-6.47-2.84-9.42-4.78c-2.93-1.93-5.43-4.4-7.54-7.19
				c-4.02-5.32-6.78-11.44-10.48-16.96c-3.91-5.82-8.93-11.17-15.8-13.3C226.09,404.96,225.3,407.85,227.15,408.42L227.15,408.42z"
				/>
		</g>
	</g>
	<g>
		<g>
			<path class="st0" d="M312.23,433.81c2.92-15.2,1.62-31.13-3.79-45.64c-1.55-4.15-3.41-8.18-5.59-12.04
				c-0.95-1.68-3.54-0.17-2.59,1.51c7.31,12.97,10.93,27.87,10.47,42.75c-0.13,4.24-0.6,8.45-1.4,12.62
				C308.97,434.9,311.87,435.7,312.23,433.81L312.23,433.81z"/>
		</g>
	</g>
	<g>
		<g>
			<path class="st0" d="M290.43,261.17c-0.93,10.11,5.84,18.58,11.41,26.28c6.21,8.58,11.18,17.94,14.86,27.87
				c7.77,20.97,10.07,43.42,10.15,65.66c0.05,13.56-0.7,27.1-1.44,40.63c-0.11,1.93,2.89,1.92,3,0c1.31-23.85,2.64-47.9-0.41-71.67
				c-2.67-20.84-8.71-41.62-20.32-59.32c-5.81-8.85-15.32-17.99-14.26-29.46C293.61,259.25,290.61,259.26,290.43,261.17
				L290.43,261.17z"/>
		</g>
	</g>
	<g>
		<g>
			<path class="st0" d="M203.66,396.85c0.99,17.11,1.9,34.22,2.87,51.33c0.95,16.75,1.97,33.5,3.21,50.23
				c1.23,16.5,2.68,32.98,4.5,49.43c1.84,16.57,4.05,33.09,6.77,49.54c2.78,16.8,6.08,33.51,10,50.08c0.5,2.1,1,4.19,1.52,6.29
				c0.41,1.68,2.9,1.27,2.95-0.4c0.38-13.37,0.75-26.73,1.13-40.1c-1,0-2,0-3,0c-0.21,10.84,1.63,21.68,5.42,31.84
				c0.48,1.28,2.55,1.57,2.89,0c3.23-14.65,3.59-29.77,1.12-44.57c-0.32-1.9-3.21-1.09-2.89,0.8c2.38,14.23,1.99,28.88-1.12,42.97
				c0.96,0,1.93,0,2.89,0c-3.71-9.93-5.52-20.44-5.31-31.04c0.04-1.93-2.95-1.93-3,0c-0.38,13.37-0.75,26.73-1.13,40.1
				c0.98-0.13,1.96-0.27,2.95-0.4c-4.06-16.52-7.52-33.18-10.43-49.94c-2.85-16.42-5.18-32.93-7.1-49.48
				c-1.91-16.43-3.43-32.9-4.71-49.4c-1.29-16.62-2.34-33.26-3.3-49.9c-0.98-16.97-1.88-33.95-2.85-50.92
				c-0.12-2.15-0.25-4.31-0.37-6.46C206.55,394.93,203.55,394.92,203.66,396.85L203.66,396.85z"/>
		</g>
	</g>
	<g>
		<g>
			<path class="st0" d="M250.36,442.65c1.97,26.07,3.93,52.14,5.9,78.2c1.97,26.07,3.93,52.14,5.9,78.2
				c1.1,14.61,2.2,29.22,3.31,43.83c0.13,1.7,2.37,2.02,2.95,0.4c4.83-13.46,4.26-27.98,3.6-42.04c-0.98,0.13-1.96,0.27-2.95,0.4
				c1.85,6.2,3.69,12.4,5.54,18.6c0.41,1.39,2.51,1.46,2.89,0c4.32-16.57,3.87-34.32-1.25-50.66c-1.44-4.61-3.27-9.09-5.42-13.42
				c-0.86-1.73-3.45-0.21-2.59,1.51c7.34,14.74,10.36,31.48,8.84,47.87c-0.44,4.69-1.28,9.33-2.47,13.89c0.96,0,1.93,0,2.89,0
				c-1.85-6.2-3.69-12.4-5.54-18.6c-0.47-1.57-3.03-1.34-2.95,0.4c0.64,13.81,1.25,28.02-3.5,41.24c0.98,0.13,1.96,0.27,2.95,0.4
				c-1.97-26.07-3.93-52.14-5.9-78.2c-1.97-26.07-3.93-52.14-5.9-78.2c-1.1-14.61-2.2-29.22-3.31-43.83
				C253.21,440.73,250.21,440.72,250.36,442.65L250.36,442.65z"/>
		</g>
	</g>
</g>
</svg>
