<?xml version="1.0" encoding="utf-8"?>
<!-- Generator: Adobe Illustrator 25.3.0, SVG Export Plug-In . SVG Version: 6.00 Build 0)  -->
<svg version="1.1" id="Livello_1" xmlns="http://www.w3.org/2000/svg" xmlns:xlink="http://www.w3.org/1999/xlink" x="0px" y="0px"
	 viewBox="0 0 34.27 34.27" style="enable-background:new 0 0 34.27 34.27;" xml:space="preserve">
<style type="text/css">
	.st0{fill:none;stroke:#000000;stroke-miterlimit:10;}
</style>
<path class="st0" d="M27.95,14.62h-8.3v-8.3c0-0.7-0.57-1.27-1.27-1.27h-2.49c-0.7,0-1.27,0.57-1.27,1.27v8.3h-8.3
	c-0.7,0-1.27,0.57-1.27,1.27v2.49c0,0.7,0.57,1.27,1.27,1.27h8.3v8.3c0,0.7,0.57,1.27,1.27,1.27h2.49c0.7,0,1.27-0.57,1.27-1.27
	v-8.3h8.3c0.7,0,1.27-0.57,1.27-1.27v-2.49C29.22,15.19,28.65,14.62,27.95,14.62z"/>
</svg>
