<?xml version="1.0" encoding="utf-8"?>
<!-- Generator: Adobe Illustrator 25.3.0, SVG Export Plug-In . SVG Version: 6.00 Build 0)  -->
<svg version="1.1" id="Livello_1" xmlns="http://www.w3.org/2000/svg" xmlns:xlink="http://www.w3.org/1999/xlink" x="0px" y="0px"
	 viewBox="0 0 49.44 49.44" style="enable-background:new 0 0 49.44 49.44;" xml:space="preserve">
<style type="text/css">
	.st0{fill:#FFFFFF;stroke:#CCCCCC;stroke-miterlimit:10;}
</style>
<path class="st0" d="M43.62,20.33H29.11V5.82c0-1.22-0.99-2.22-2.22-2.22h-4.36c-1.22,0-2.22,0.99-2.22,2.22v14.51H5.82
	c-1.22,0-2.22,0.99-2.22,2.22v4.36c0,1.22,0.99,2.22,2.22,2.22h14.51v14.51c0,1.22,0.99,2.22,2.22,2.22h4.36
	c1.22,0,2.22-0.99,2.22-2.22V29.11h14.51c1.22,0,2.22-0.99,2.22-2.22v-4.36C45.84,21.32,44.84,20.33,43.62,20.33z"/>
</svg>
