<svg id="Livello_1" data-name="Livello 1" xmlns="http://www.w3.org/2000/svg" viewBox="0 0 138.52 112.39">
  <defs>
    <style>
      .cls-1 {
        fill: none;
        stroke: #e80800;
        stroke-miterlimit: 10;
        stroke-width: 2px;
      }
    </style>
  </defs>
  <path class="cls-1" d="M143.79,29.78a8.37,8.37,0,0,0-6.68-3.29H71.43a.93.93,0,0,0-.23,0,1.51,1.51,0,0,0-.3,0H41.22L38.57,16.27a10.85,10.85,0,0,0-10.5-8.11H12.87a3.88,3.88,0,1,0,0,7.76H28.1a3.09,3.09,0,0,1,3,2.3l3.35,13,7.4,28.73,7.4,28.76.06.26.11.36,4,14.19a9.66,9.66,0,0,0,9.17,7h0a11.88,11.88,0,0,0,22.48,0h19.65a11.89,11.89,0,0,0,22.5,0h1.83a3.88,3.88,0,0,0,0-7.76h-1.83a11.89,11.89,0,0,0-22.5,0H85.08a11.88,11.88,0,0,0-22.48,0h-.06a1.9,1.9,0,0,1-1.69-1.37l-2.69-9.62H123a10.64,10.64,0,0,0,10.37-8l6-23.76,5.85-23a8.34,8.34,0,0,0-1.44-7.23Z" transform="translate(-7.99 -7.16)"/>
</svg>
