<?xml version="1.0" encoding="utf-8"?>
<!-- Generator: Adobe Illustrator 25.3.0, SVG Export Plug-In . SVG Version: 6.00 Build 0)  -->
<svg version="1.1" id="Livello_1" xmlns="http://www.w3.org/2000/svg" xmlns:xlink="http://www.w3.org/1999/xlink" x="0px" y="0px"
	 viewBox="0 0 153.57 125.19" style="enable-background:new 0 0 153.57 125.19;" xml:space="preserve">
<style type="text/css">
	.st0{fill:none;stroke:#FFFFFF;stroke-width:2;stroke-miterlimit:10;}
</style>
<g>
	<path class="st0" d="M143.79,29.78c-1.6-2.09-4.05-3.29-6.68-3.29l-65.68,0c-0.09-0.02-0.15-0.02-0.23-0.02
		c-0.11,0-0.19,0-0.3,0.02H41.22l-2.65-10.22c-1.24-4.78-5.57-8.11-10.5-8.11H12.87c-2.13,0-3.88,1.75-3.88,3.88
		s1.75,3.88,3.88,3.88H28.1c1.41,0,2.65,0.96,2.99,2.3l3.35,12.95l7.4,28.73l7.4,28.76l0.06,0.26l0.11,0.36l3.99,14.19
		c1.15,4.12,4.93,7,9.17,7.04h0.02c1.62,4.74,6.1,8.04,11.24,8.04c5.14,0,9.64-3.33,11.24-8.04h19.65c1.62,4.74,6.1,8.04,11.24,8.04
		c5.14,0,9.64-3.33,11.26-8.04h1.83c2.13,0,3.88-1.75,3.88-3.88c0-2.13-1.75-3.88-3.88-3.88h-1.83c-1.64-4.74-6.12-8.04-11.26-8.04
		s-9.64,3.33-11.24,8.04H85.08c-1.62-4.74-6.1-8.04-11.24-8.04c-5.16,0-9.64,3.33-11.24,8.04h-0.06c-0.79-0.06-1.47-0.6-1.69-1.37
		l-2.69-9.62h64.81c4.93,0,9.19-3.31,10.37-8.04l6.04-23.76l5.85-22.95C145.9,34.47,145.36,31.85,143.79,29.78L143.79,29.78z"/>
</g>
</svg>
