<svg id="Livello_1" data-name="Livello 1" xmlns="http://www.w3.org/2000/svg" viewBox="0 0 1868.95 343.13">
  <defs>
    <style>
      .cls-1 {
        fill: #121224;
      }
    </style>
  </defs>
  <g>
    <path class="cls-1" d="M1496.83,53.16c.61-3.87,4-5.51,7.58-5.8,7.19-.56,14.63,2.64,20.31,6.78,1.91,1.39,4.34-1.74,2.54-3.29-3.48-3-4.5-7.52-5-11.91a29,29,0,0,1,2.88-15.5c2.31-4.62,6-7.33,11.28-6.16a21.34,21.34,0,0,1,11,6.79,26.16,26.16,0,0,1,4.85,8,57.86,57.86,0,0,0-8.38,17.8,32.63,32.63,0,0,0-1.09,9.17c1.48.4,2.91.88,4.36,1.33a22.31,22.31,0,0,1,0-4.46,31.4,31.4,0,0,1,1.84-8.29,56.2,56.2,0,0,1,4.9-10.19A37.26,37.26,0,0,1,1554,50.7a51.9,51.9,0,0,1-1.84,7.37,28.33,28.33,0,0,1-1.23,3.42c1.28.45,2.52,1,3.78,1.47a21.46,21.46,0,0,0,1-2.33c3.17-8.91,4.19-19.06,1.29-28.06,3.19-4.55,6.79-8.85,10.31-13.06,1.72-2.05-1.23-5-3-3-3.1,3.71-6.28,7.5-9.22,11.47a29.86,29.86,0,0,0-2.39-4c-5.89-8.23-19.73-16.57-28.26-7.06-4.42,4.93-6.39,12.4-6.52,18.88a31.1,31.1,0,0,0,1.5,10.42c-5.19-2.36-11-3.68-16.44-2.95-7,.93-10.66,6.09-10.41,12.3,1.36-.15,2.73-.27,4.11-.38A10.49,10.49,0,0,1,1496.83,53.16Z" transform="translate(-25.53 -12.76)"/>
    <path class="cls-1" d="M1534.63,86.57c-4.3-1.54-8.77-3.16-13.1-5.1a97.27,97.27,0,0,0-10.38-.76c7,4.25,15.07,7.28,22.37,9.89C1536.06,91.52,1537.16,87.48,1534.63,86.57Z" transform="translate(-25.53 -12.76)"/>
    <path class="cls-1" d="M1524.78,119.57a79.52,79.52,0,0,1-15.32,10.08c-6.16,3.21-13.11,6.36-20.19,4.67a2,2,0,0,0-2.11.76,2.14,2.14,0,0,1,3.12,1.14c.3.89.65,1.76,1,2.63,6.2.54,12.19-1.58,17.81-4.32a87.93,87.93,0,0,0,18-11.41c10.38-8.67,18-21.11,18.16-34.86-1.36-.63-2.75-1.19-4.15-1.74,0,.06,0,.11,0,.17C1541.41,99.71,1534.41,111.29,1524.78,119.57Z" transform="translate(-25.53 -12.76)"/>
    <path class="cls-1" d="M1553,153.87a93.18,93.18,0,0,0,20.62-43.7q-1.74-2.07-3.6-4a88.31,88.31,0,0,1-20,44.75C1548.29,153,1551.24,155.93,1553,153.87Z" transform="translate(-25.53 -12.76)"/>
    <path class="cls-1" d="M1576.84,73.58A148.55,148.55,0,0,1,1650,88.66c2.41,1.19,4.53-2.42,2.12-3.62a152.88,152.88,0,0,0-75.29-15.66C1574.16,69.52,1574.14,73.71,1576.84,73.58Z" transform="translate(-25.53 -12.76)"/>
    <path class="cls-1" d="M1625.4,96.32c.51-.76,1-1.52,1.6-2.25,1.6-2.13,5.24,0,3.62,2.11l-.19.26,10.46.25c-.07-.16-.13-.33-.2-.5-1.13-2.43,2.48-4.56,3.62-2.12.42.89.78,1.8,1.14,2.72q13.56.27,27.14.43c2.7,0,2.7-4.16,0-4.19q-38.27-.42-76.51-1.81c1.3,1.4,2.54,2.85,3.76,4.32Q1612.61,96,1625.4,96.32Z" transform="translate(-25.53 -12.76)"/>
    <path class="cls-1" d="M1620.36,119.91l.5-.14a2.11,2.11,0,0,1,2.15,3.35,2.31,2.31,0,0,0,1.77-3.17c-3.64-8.27.68-16.84,5.64-23.51l-5-.12C1620.62,103.4,1617.7,111.63,1620.36,119.91Z" transform="translate(-25.53 -12.76)"/>
    <path class="cls-1" d="M1628.59,202.16c-.15,1.41-.37,2.79-.56,4.19a174.88,174.88,0,0,0,25.67-2.77c-.16-1.38-.29-2.77-.42-4.16A174.63,174.63,0,0,1,1628.59,202.16Z" transform="translate(-25.53 -12.76)"/>
    <path class="cls-1" d="M1621.16,122.06a20.81,20.81,0,0,1-.8-2.15c-1.44.38-2.87.8-4.31,1.25.59,1.26,1.19,2.53,1.74,3.81,1.39-.41,2.79-.8,4.18-1.17a1.88,1.88,0,0,0,1-.69A1.62,1.62,0,0,1,1621.16,122.06Z" transform="translate(-25.53 -12.76)"/>
    <path class="cls-1" d="M1578.27,168.81c-.78-10.55,4.07-20.87,11.37-28.27.24-.25.51-.46.76-.7-.5-1.36-1-2.71-1.56-4-8.21,7.24-14,16.68-14.78,28.65-1,16,9.5,28.52,23,35.47.16-1.46.28-2.93.39-4.41a45,45,0,0,1-5-3.19C1584.83,186.73,1579,178.39,1578.27,168.81Z" transform="translate(-25.53 -12.76)"/>
    <path class="cls-1" d="M1684.44,191.91a29.51,29.51,0,0,0,3.44-14,21.14,21.14,0,0,0-2.71-9.83,145.85,145.85,0,0,0-.92,16.26C1684.24,186.88,1684.31,189.41,1684.44,191.91Z" transform="translate(-25.53 -12.76)"/>
    <path class="cls-1" d="M1646.79,125a33.86,33.86,0,0,0,11,18.69c.41-1.53.87-3,1.33-4.56a31.85,31.85,0,0,1-8.79-18.48c-1-8-2-16.28-4.9-23.84l-4.55-.11C1644.86,105.6,1644.89,115.56,1646.79,125Z" transform="translate(-25.53 -12.76)"/>
    <path class="cls-1" d="M1559.5,64.11c.54-2.64-3.5-3.76-4-1.12a2,2,0,0,0,0,.24c1.33.53,2.66,1.05,4,1.62C1559.42,64.61,1559.45,64.36,1559.5,64.11Z" transform="translate(-25.53 -12.76)"/>
    <path class="cls-1" d="M1574.32,73a18.78,18.78,0,0,0-.33-3.27c-.55-2.85-2.51-8.53-6.43-6.28-2.08,1.2-.64,4.17,1.36,3.87a7.85,7.85,0,0,1,1,3c1,.58,2,1.1,3,1.71C1573.35,72.31,1573.82,72.67,1574.32,73Z" transform="translate(-25.53 -12.76)"/>
    <path class="cls-1" d="M1487.17,135.09a1.78,1.78,0,0,0-.92,2.26c.11.33.26.66.37,1a2.15,2.15,0,0,1,.42.78c.29,1,.65,1.92,1,2.86,4.12,9.5,10.81,18,19.62,23.54,11.46,7.18,24.11,5.59,35.72-.32,2.4-1.22.28-4.84-2.12-3.62-5.19,2.64-10.83,4.69-16.72,4.76A27.73,27.73,0,0,1,1509,161.4c-8.09-5.33-14.16-13.55-17.72-22.53a21.11,21.11,0,0,1-3.11-.48A2,2,0,0,1,1487.17,135.09Z" transform="translate(-25.53 -12.76)"/>
    <path class="cls-1" d="M1483,140.23A53.21,53.21,0,0,0,1505.6,170c2.28,1.44,4.39-2.18,2.12-3.62A48.76,48.76,0,0,1,1488,142c-.52-1.2-1-2.41-1.42-3.64C1485.35,136.84,1482.32,138,1483,140.23Z" transform="translate(-25.53 -12.76)"/>
    <path class="cls-1" d="M1463.25,121c1.59,2.14,5.23.06,3.62-2.12-4.54-6.11-9.25-12.29-15.06-17.24-1,.93-2,1.91-3,2.88C1454.41,109.22,1459,115.29,1463.25,121Z" transform="translate(-25.53 -12.76)"/>
    <path class="cls-1" d="M1419.05,91.4c-10-.52-19.32-2.08-26.35-9.81-5.92-6.52-9.36-14.89-13.83-22.38a56.69,56.69,0,0,0-23.79-22.36A2.13,2.13,0,0,0,1352,38.1c-3.66,11.37-3.92,22.86,1.23,33.8,4.9,10.41,13.08,18.87,21,27,1.88,1.94,4.84-1,3-3-7.29-7.5-14.72-15.18-19.55-24.56-4.92-9.58-5.08-19.59-2.31-29.68a52.08,52.08,0,0,1,19.3,18.57c4.46,7.26,7.85,15.18,13.14,21.91a33.08,33.08,0,0,0,22.1,12.57c2.48.35,5,.54,7.53.67,1.12-1.34,2.24-2.67,3.42-4Z" transform="translate(-25.53 -12.76)"/>
    <path class="cls-1" d="M1366.82,115c-9-8.59-14.89-21.74-10.93-34.13.82-2.58-3.22-3.68-4-1.12-4.22,13.21,1.45,27.41,10.79,37,8.91,9.15,20.8,14.4,32.63,18.92.44-1.32.91-2.63,1.4-3.93C1385.94,127.69,1375.2,123,1366.82,115Z" transform="translate(-25.53 -12.76)"/>
    <path class="cls-1" d="M1382,157a109.71,109.71,0,0,1-12.42-8.64c-7.37-6-13.93-15.25-10.07-25.12,1-2.52-3.07-3.61-4-1.12-4.22,10.81,2.31,21.72,10.43,28.6a110.12,110.12,0,0,0,14,9.9,42,42,0,0,0,9,4.2c.17-1.41.36-2.81.56-4.2A40,40,0,0,1,1382,157Z" transform="translate(-25.53 -12.76)"/>
    <path class="cls-1" d="M1509,225.15c.52.28,1,.53,1.58.78-.29-1.68-2.78-2.67-3.83-.78-.1.18-.21.34-.31.52A2,2,0,0,1,1509,225.15Z" transform="translate(-25.53 -12.76)"/>
    <path class="cls-1" d="M1410.61,264.24c-.81-1.18-1.55-2.42-2.32-3.65-.58-.16-1.16-.3-1.74-.47-11.63-3.48-23.45-9-31.3-18.57-9.4-11.47-10.41-27.13-8.09-41.22a2.25,2.25,0,0,0-3.29-2.32c1.46,1,1.1,3.83-1.13,3.82h0c-1.7,12.37-1,25.41,5.25,36.49,4,7.2,10.16,12.72,17.11,17,.62-.54,1.23-1.1,1.86-1.63,2-1.71,5,1.23,3,3l-1,.86a85.09,85.09,0,0,0,8.54,3.91,104.43,104.43,0,0,0,11.39,3.71l.21-.23A1.78,1.78,0,0,1,1410.61,264.24Z" transform="translate(-25.53 -12.76)"/>
    <path class="cls-1" d="M1508.81,229.74c-.67-.3-1.33-.63-2-1a1.84,1.84,0,0,1-.86-2.42c-12,20.74-34,34.1-57.62,37.3,1.23,1.23,2.47,2.43,3.77,3.59a86.66,86.66,0,0,0,28.18-10A79.2,79.2,0,0,0,1508.81,229.74Z" transform="translate(-25.53 -12.76)"/>
    <path class="cls-1" d="M1510.31,227.26c-.47.85-1,1.66-1.5,2.48,10.35,4.68,23,3.59,32.1-3.44a31.76,31.76,0,0,0,11.18-31.8c-.59-2.63-4.63-1.52-4,1.11a27.58,27.58,0,0,1-9.46,27.23c-7.86,6.23-19.06,7.21-28.07,3.09A2,2,0,0,1,1510.31,227.26Z" transform="translate(-25.53 -12.76)"/>
    <path class="cls-1" d="M1506,226.34c.13-.23.28-.45.41-.68A2.37,2.37,0,0,0,1506,226.34Z" transform="translate(-25.53 -12.76)"/>
    <path class="cls-1" d="M1236.27,164.89c.74-1.41,3-1.39,4.33-1.54,3.88-.41,7.8-.61,11.7-.67a137.62,137.62,0,0,1,17.81.9c2.76,1.54,5.55,3,8.41,4.37l.34.15a55.72,55.72,0,0,0,7.4-1.24l-2.09-.92c1,.22,2,.45,2.95.69a48.27,48.27,0,0,0,7.1-2.44,141.38,141.38,0,0,0-18-4c-1.61-.25-3.22-.46-4.84-.65-10.76-6.12-20.53-13.87-27.73-24,4.08-.88,8.76,1.12,12.53,2.3q7.9,2.46,15.71,5.16,15.15,5.25,29.95,11.4c1.56.65,3.1,1.36,4.65,2a43.7,43.7,0,0,0,3.23-3.15c-14.74-6.37-29.76-12.11-45-17.11-4.57-1.5-9.18-3.13-13.86-4.27-3.92-1-7.91-1.18-11.53.84a2.11,2.11,0,0,0-.75,2.86c6.16,9.44,14.37,17,23.59,23.15-3-.17-5.9-.27-8.86-.25q-5.87,0-11.7.59c-3,.28-6.61.41-8.55,3.15a6.65,6.65,0,0,0-.79,6.24h4.6C1236.29,167.41,1235.7,166,1236.27,164.89Z" transform="translate(-25.53 -12.76)"/>
    <path class="cls-1" d="M1282.28,194.46c6.33,1.16,12.7,2.06,19,2.91A69.46,69.46,0,0,0,1282.28,194.46Z" transform="translate(-25.53 -12.76)"/>
    <path class="cls-1" d="M1363.88,198a1.93,1.93,0,0,0-1.13-.37c-5.82,0-11.63-.22-17.45-.48a59.05,59.05,0,0,1,4.56,4.37c4.29.15,8.58.26,12.88.29.12-.87.25-1.75.39-2.61A1.73,1.73,0,0,1,1363.88,198Z" transform="translate(-25.53 -12.76)"/>
    <path class="cls-1" d="M1317.12,177.78c-2.14.17-5.58-1.23-7.32-1.92-1.83.73-2.8,1.85-2.8,3.4,0,.06,0,.11,0,.17,5.68,2.22,13.32,4.68,15.84-1.55a2.09,2.09,0,0,0-1-2.36c-1.43-.77-2.89-1.49-4.35-2.21q-2.79,1.08-5.75,1.91C1313.59,176,1315.36,176.89,1317.12,177.78Z" transform="translate(-25.53 -12.76)"/>
    <path class="cls-1" d="M1360.67,183.36c2.35,1.34,4.46-2.28,2.12-3.62-9.71-5.55-19.61-10.75-29.64-15.68q-1.79,1.5-3.66,2.83Q1345.33,174.63,1360.67,183.36Z" transform="translate(-25.53 -12.76)"/>
    <path class="cls-1" d="M1348.19,292.08a108.67,108.67,0,0,1-21.36,16.13c-9.19,5.08-19.06,6.81-29,9.69-9.71,2.81-19.29,8-23,17.92-.61,1.61,1.16,2.86,2.57,2.57a110.6,110.6,0,0,0,12.83-3.4,37.32,37.32,0,0,0-4.12,7c-.69,1.53.46,3.69,2.36,3.08a77.1,77.1,0,0,0,32.58-20.6c1.84-2-1.11-4.93-3-3a73,73,0,0,1-25.57,17.62,34.62,34.62,0,0,1,6.79-7.59,108.36,108.36,0,0,0,13.28-6.87,2.1,2.1,0,0,0-1.61-3.83,38.48,38.48,0,0,0-13.86,7.08,105.73,105.73,0,0,1-16.44,5.49c4.59-7,13.47-10.25,21.33-12.27,9.38-2.41,18.46-4.57,27-9.3,15.31-8.47,27.36-21.6,39.28-34.15a272.16,272.16,0,0,1,20.72-20.18c-1.31-.69-2.58-1.43-3.84-2.2C1371.94,266.68,1360.87,280.19,1348.19,292.08Z" transform="translate(-25.53 -12.76)"/>
    <path class="cls-1" d="M1408.87,265.14c-15.06,17.31-33.71,30.76-52.61,43.53-9.4,6.34-18.88,12.56-28.14,19.11q-6.86,4.85-13.5,10c-1.86,1.45-4,2.88-4.89,5.17-.6,1.53-.59,3.85,1,4.84,2,1.22,6,.35,8.11-.09a25.71,25.71,0,0,0,3.42-1,52.63,52.63,0,0,0-3.23,6c-.82,1.82.91,4,2.86,2.86a160.66,160.66,0,0,0,39.21-31.47c1.81-2-1.14-5-3-3a157.52,157.52,0,0,1-31.7,26.75,50.71,50.71,0,0,1,4.4-5.79,90.38,90.38,0,0,0,10.88-9.32c1.69-1.63-.51-4.59-2.54-3.29A54.36,54.36,0,0,0,1328,339c-4.29,2.91-9,5-14.23,5,1.3-2.16,7.43-6,8.52-6.84q5-3.75,10.19-7.34c6.75-4.72,13.6-9.29,20.44-13.87,13.49-9,27-18.19,39.37-28.7A179.28,179.28,0,0,0,1412,267.88a2,2,0,0,0,.47-1c-.24-.33-.48-.65-.71-1Z" transform="translate(-25.53 -12.76)"/>
    <path class="cls-1" d="M111.57,57.59h-86V311h86q64.08,0,92.69-35.28t28.62-91.43q0-56.15-28.26-91.43T111.57,57.59Zm80.81,176.75a80.15,80.15,0,0,1-28.26,36.72q-19.44,14-50,14H57.21V83.51h56.88q30.6,0,50,14a80.15,80.15,0,0,1,28.26,36.72q8.82,22.68,8.82,50T192.38,234.34Z" transform="translate(-25.53 -12.76)"/>
    <polygon class="cls-1" points="239.02 298.26 406.05 298.26 406.05 272.35 270.7 272.35 270.7 184.51 383.01 184.51 383.01 158.59 270.7 158.59 270.7 70.75 406.05 70.75 406.05 44.84 239.02 44.84 239.02 298.26"/>
    <polygon class="cls-1" points="478.03 44.84 446.36 44.84 446.36 298.26 607.63 298.26 607.63 272.35 478.03 272.35 478.03 44.84"/>
    <rect class="cls-1" x="645.05" y="44.83" width="31.68" height="253.43"/>
    <path class="cls-1" d="M840.13,277.18a58,58,0,0,0-2.52,12.24q0,3.6-2.88,3.6t-2.88-3.6a58,58,0,0,0-2.52-12.24L755.54,57.59h-36L808.81,311h51.84L949.92,57.59h-36Z" transform="translate(-25.53 -12.76)"/>
    <polygon class="cls-1" points="941.67 298.26 1108.7 298.26 1108.7 272.35 973.34 272.35 973.34 184.51 1085.66 184.51 1085.66 158.59 973.34 158.59 973.34 70.75 1108.7 70.75 1108.7 44.84 941.67 44.84 941.67 298.26"/>
    <path class="cls-1" d="M1278.86,168.12a67.53,67.53,0,0,1-6.77.35h-35.26l.16.32c2.86,5.34,9.74,9.22,14.93,11.92a87.07,87.07,0,0,0,18.51,6.8c14.51,3.75,29.58,5.75,44.45,7.38,10.11,1.11,20.26,1.84,30.43,2.28a62.54,62.54,0,0,0-5.54-4.22q-12.24-8.28-29.16-10.44a8.78,8.78,0,0,1-2.7-.9,2.42,2.42,0,0,1-.89-2.17c-1.46-.57-2.8-1.12-3.88-1.51C1294.91,175,1286.76,171.85,1278.86,168.12Z" transform="translate(-25.53 -12.76)"/>
    <path class="cls-1" d="M1298.36,162.17a43.07,43.07,0,0,1-4.15,2,143.84,143.84,0,0,1,23.33,9.1,55,55,0,0,0,11.93-6.41q-11.35-5.53-23-10.49A46.65,46.65,0,0,1,1298.36,162.17Z" transform="translate(-25.53 -12.76)"/>
    <path class="cls-1" d="M1298.65,171.86q5.19,1.92,10.41,3.72l.74.28c.16-.06.27-.14.44-.2.53-.13,1-.31,1.56-.45a139.2,139.2,0,0,0-24.68-8.57c-.29.08-.57.17-.86.24C1290.34,168.65,1294.48,170.3,1298.65,171.86Z" transform="translate(-25.53 -12.76)"/>
    <path class="cls-1" d="M1301.26,197.38a45.85,45.85,0,0,1,17.62,10q14,13,14,32.4,0,19.8-12.42,32.58t-34.38,12.78H1206.2V194.4H1280c.78,0,1.51.06,2.28.08a131.71,131.71,0,0,1-25.62-7,64.56,64.56,0,0,1-17.43-10.13c-2.47-2.06-5.82-5.34-7-8.85h-26v-85h72.72q21.6,0,32,11t10.44,28.26a45.09,45.09,0,0,1-5.94,22.68,42.61,42.61,0,0,1-5.74,7.83q11.85,5.12,23.43,10.8a59.16,59.16,0,0,0,7.88-8q12.06-14.94,12.06-32.58,0-65.86-81.36-65.87h-97.19V311h113.75q37.44,0,56.88-19.62T1364.61,239a55.14,55.14,0,0,0-6.3-25.56,52.54,52.54,0,0,0-8.44-11.93,471.39,471.39,0,0,1-47.45-4Z" transform="translate(-25.53 -12.76)"/>
    <path class="cls-1" d="M1613.76,205.47a55.41,55.41,0,0,1-16.75-5.55,119.4,119.4,0,0,1-10,37.12q-10.8,23.58-31.14,37.26T1508.58,288q-27,0-47.34-13.68a87.75,87.75,0,0,1-9.12-7.08,101.11,101.11,0,0,1-39.62-1.17,2,2,0,0,1,0,.8,112.84,112.84,0,0,0,31.82,29.77q27.54,17.28,64.26,17.28t64.26-17.28a113.45,113.45,0,0,0,42.12-46.8A140,140,0,0,0,1628,206.35,83.39,83.39,0,0,1,1613.76,205.47Z" transform="translate(-25.53 -12.76)"/>
    <path class="cls-1" d="M1551,61.49c-1.23-.43-2.5-.77-3.75-1.16a5.84,5.84,0,0,0,.87,2.53C1549.18,64.38,1550.2,63.12,1551,61.49Z" transform="translate(-25.53 -12.76)"/>
    <path class="cls-1" d="M1587.06,131.57c.64,1.39,1.21,2.81,1.79,4.23,7.65-6.74,17.39-11.56,27.19-14.64-.37-.79-.7-1.59-1.08-2.37a117.22,117.22,0,0,0-15.14-23.26q-12.39-.44-24.77-1a91.35,91.35,0,0,1-1.45,15.6A93,93,0,0,1,1587.06,131.57Z" transform="translate(-25.53 -12.76)"/>
    <path class="cls-1" d="M1617.78,125c-10,3-19.8,7.52-27.38,14.87a128.88,128.88,0,0,1,7.45,44.47c0,3.81-.18,7.53-.46,11.21,9.57,5.33,20.29,6.9,31.19,6.65a165.54,165.54,0,0,0,1-17.86Q1629.55,152,1617.78,125Z" transform="translate(-25.53 -12.76)"/>
    <path class="cls-1" d="M1447.1,263.82c.42-.05.84-.13,1.26-.19A91,91,0,0,1,1430.11,237q-10.8-23.58-10.8-52.74t10.8-52.74a90.75,90.75,0,0,1,18.7-27,35.47,35.47,0,0,0-9.69-6c-6.9-2.72-14.35-2.73-21.71-3.13a117.09,117.09,0,0,0-15.2,23.33,135.1,135.1,0,0,0-5.54,13q2.94,1.13,5.87,2.2c2.51.93,1.42,5-1.11,4l-6.15-2.31a143.7,143.7,0,0,0-5.91,24.86,22.79,22.79,0,0,0,6.69,1.33c2.69.09,2.7,4.28,0,4.19a27.06,27.06,0,0,1-7.26-1.31,166.22,166.22,0,0,0-1.17,19.54q0,36,14.58,65.52a123.67,123.67,0,0,0,6.08,10.77A99.94,99.94,0,0,0,1447.1,263.82Z" transform="translate(-25.53 -12.76)"/>
    <path class="cls-1" d="M1451.81,101.65a84.64,84.64,0,0,1,9.43-7.34q20.34-13.68,47.34-13.68c.87,0,1.7.06,2.56.08-8.16-4.92-15-11.48-17.83-21a16.58,16.58,0,0,1-.68-4.08q-26.91,3-48.31,16.37a114.34,114.34,0,0,0-23.5,19.51c9.28.51,18.37,1.36,26.39,6.65A46.79,46.79,0,0,1,1451.81,101.65Z" transform="translate(-25.53 -12.76)"/>
    <path class="cls-1" d="M1558.37,79.9c.63.95.8-1,1-1.6a14.25,14.25,0,0,0,.45-5.55,1.1,1.1,0,0,1,0-.18h0c-.27-2.69,3.9-2.63,4.19,0a16.29,16.29,0,0,0,1.79,6.38c1.59,2.64,2.86,1.36,3.65-1a14.53,14.53,0,0,0,.69-6c0-.3-.11-1-.24-1.74a106.51,106.51,0,0,0-10.51-5.43,61.85,61.85,0,0,0-1.23,12.22C1558.14,77.89,1557.89,79.18,1558.37,79.9Z" transform="translate(-25.53 -12.76)"/>
    <path class="cls-1" d="M1545.88,66.85c-2.1-1.85-2.9-4.78-3-7.85a132.21,132.21,0,0,0-34.26-4.28c-4,0-8,.22-11.84.53a18.9,18.9,0,0,0,2.41,7.65c4.77,9,13.25,14.5,22.37,18.58a82.58,82.58,0,0,1,19.52,5.06c.12-2.51,4.08-2.46,4.16.17,0,.53,0,1.05,0,1.57a77,77,0,0,1,10.72,6A85.35,85.35,0,0,1,1570,106.16a88.27,88.27,0,0,0,.87-12.17c-1.38-1.09-1-3.82,1.18-3.73q12,.52,24,1A114.1,114.1,0,0,0,1574.32,73a17.78,17.78,0,0,1-1.91,8.64c-1.61,3.07-4.77,4.31-7.76,2.26a8.3,8.3,0,0,1-2.21-2.29c-1.25,2.87-3.29,4.67-6.39,2.35-2.55-1.91-2.17-5.73-2.1-8.54a68.56,68.56,0,0,1,1.46-12.2l-.68-.26C1553,66.5,1549.75,70.24,1545.88,66.85Z" transform="translate(-25.53 -12.76)"/>
    <path class="cls-1" d="M1575.05,94.57c0-.65,0-1.3,0-1.95,0-2.69-4.22-2.7-4.19,0,0,.46,0,.91,0,1.37a2,2,0,0,0,1.18.46C1573.06,94.49,1574.06,94.52,1575.05,94.57Z" transform="translate(-25.53 -12.76)"/>
    <path class="cls-1" d="M1410.61,264.24c.38.56.8,1.09,1.19,1.64l.71.18A2.28,2.28,0,0,0,1410.61,264.24Z" transform="translate(-25.53 -12.76)"/>
    <path class="cls-1" d="M1660.51,200.26c.7,3.07,3.29,5.46,6.53,4.67a11.8,11.8,0,0,0,6.54-4,1.73,1.73,0,0,1,.24-.23c0-.06,0-.13.09-.19,4.68-6,9.3-12.85,9.75-20.69.41-7.14-3.21-14.45-10.63-16.1-1.94-.43-1.83-2.72-.6-3.67a9.48,9.48,0,0,0-7.59-11.59,1.76,1.76,0,0,1-1-.57l-.2-.06a34.27,34.27,0,0,1-5.81-4.11,154.79,154.79,0,0,0-5.23,40.63c0,5.14.27,10.17.72,15.11l4.38-.75a2.06,2.06,0,0,1,1.09.11A1.76,1.76,0,0,1,1660.51,200.26Z" transform="translate(-25.53 -12.76)"/>
    <path class="cls-1" d="M1879.89,118.79A113.45,113.45,0,0,0,1837.77,72q-27.54-17.28-64.26-17.28T1709.25,72a113.45,113.45,0,0,0-42.12,46.8,137.21,137.21,0,0,0-8,20.33,29.62,29.62,0,0,0,6.59,5,1.73,1.73,0,0,1,.25.21h0c7.33,1.24,12.22,8.94,10.71,16.06a17.2,17.2,0,0,1,8.5,7.61,119,119,0,0,1,9.87-36.48q10.8-23.58,31.14-37.26t47.34-13.68q27,0,47.34,13.68T1852,131.57q10.8,23.58,10.8,52.74T1852,237.05q-10.8,23.58-31.14,37.26T1773.51,288q-27,0-47.34-13.68T1695,237.05a121.92,121.92,0,0,1-10.6-45.13,67.73,67.73,0,0,1-7.24,11.09h0l0,.06-.28.37s0,0,0,0a15.91,15.91,0,0,1-10.49,5.82c-4.17.39-7.83-2.56-9.35-6.28l-3.29.56a140.58,140.58,0,0,0,13.44,46.25,113.45,113.45,0,0,0,42.12,46.8q27.54,17.28,64.26,17.28t64.26-17.28a113.45,113.45,0,0,0,42.12-46.8q14.58-29.52,14.58-65.52T1879.89,118.79Z" transform="translate(-25.53 -12.76)"/>
    <path class="cls-1" d="M1672.44,160c0,.15,0,.3-.09.45-.8,2.58,3.23,3.68,4,1.11a11,11,0,0,0,.28-1.13,17.21,17.21,0,0,0-2.52-.8A2,2,0,0,0,1672.44,160Z" transform="translate(-25.53 -12.76)"/>
    <path class="cls-1" d="M1663.8,147.85c2.17,1,4-2.07,2.16-3.47A2.22,2.22,0,0,0,1663.8,147.85Z" transform="translate(-25.53 -12.76)"/>
    <path class="cls-1" d="M1658.75,198.78a2.15,2.15,0,0,0-2.27,2.6A10.3,10.3,0,0,0,1657,203l1.78-.3C1661,202.32,1660.54,199.4,1658.75,198.78Z" transform="translate(-25.53 -12.76)"/>
    <path class="cls-1" d="M1673.82,200.67c-1.33,2.07,1.4,4.78,3,2.81.11-.14.22-.27.32-.41l0-.06C1678.66,200.9,1675.45,198.94,1673.82,200.67Z" transform="translate(-25.53 -12.76)"/>
  </g>
</svg>
