<?xml version="1.0" standalone="no"?>
<!DOCTYPE svg PUBLIC "-//W3C//DTD SVG 20010904//EN"
 "http://www.w3.org/TR/2001/REC-SVG-20010904/DTD/svg10.dtd">
<svg version="1.0" xmlns="http://www.w3.org/2000/svg"
 width="600.000000pt" height="600.000000pt" viewBox="0 0 600.000000 600.000000"
 preserveAspectRatio="xMidYMid meet">
<metadata>
Created by potrace 1.14, written by Peter Selinger 2001-2017
</metadata>
<g transform="translate(0.000000,600.000000) scale(0.100000,-0.100000)"
fill="#000000" stroke="none">
<path d="M3128 5995 c-2 -2 -23 -6 -47 -10 -23 -3 -53 -10 -65 -14 -11 -5 -24
-9 -29 -10 -64 -8 -186 -63 -284 -127 -138 -92 -304 -269 -389 -419 -90 -157
-192 -378 -196 -425 0 -3 -6 -21 -14 -40 -11 -30 -32 -100 -40 -135 -1 -5 -9
-37 -17 -70 -9 -33 -18 -78 -22 -100 -3 -23 -7 -52 -10 -65 -32 -167 -46 -468
-30 -655 4 -38 8 -92 10 -120 2 -27 5 -50 5 -50 2 0 7 -29 13 -72 3 -21 9 -46
12 -56 9 -21 14 -22 -86 9 -96 29 -177 51 -211 58 -12 2 -30 7 -38 10 -15 5
-38 9 -150 25 -131 19 -187 24 -310 23 -170 0 -270 -11 -389 -42 -42 -12 -84
-23 -93 -25 -38 -9 -187 -84 -243 -124 -120 -83 -229 -208 -293 -336 -34 -66
-77 -192 -86 -249 -3 -20 -9 -53 -12 -73 -10 -59 -11 -233 -2 -288 5 -27 11
-65 14 -84 24 -173 134 -459 260 -677 48 -83 188 -292 204 -304 4 -3 33 -36
65 -75 99 -120 278 -292 420 -404 44 -35 82 -66 85 -70 3 -3 19 -15 35 -27 17
-11 60 -41 96 -66 182 -127 419 -263 686 -394 116 -57 214 -104 217 -104 3 0
29 -11 58 -24 29 -13 82 -36 118 -51 36 -14 79 -33 97 -41 17 -8 73 -30 125
-49 51 -20 102 -40 113 -45 11 -5 58 -23 105 -40 47 -17 92 -33 100 -37 8 -3
18 -7 23 -8 4 -2 9 -4 12 -5 3 -1 8 -3 13 -5 4 -1 14 -4 22 -8 184 -72 248
-91 323 -91 44 -1 81 4 85 10 4 5 22 16 40 23 17 8 32 19 32 26 0 7 7 15 15
18 23 9 66 105 72 160 13 115 -46 227 -147 278 -30 16 -131 56 -225 89 -93 33
-177 63 -185 67 -8 3 -17 7 -20 8 -3 1 -18 7 -35 14 -16 6 -43 16 -60 22 -16
6 -39 15 -50 19 -11 5 -56 22 -100 40 -44 17 -91 36 -105 42 -14 6 -34 14 -45
19 -36 15 -139 59 -190 82 -206 91 -654 333 -663 358 -2 5 -10 9 -18 9 -8 0
-14 4 -14 8 0 5 -11 14 -25 20 -14 7 -31 16 -38 22 -7 6 -55 42 -107 81 -363
273 -629 602 -787 974 -61 144 -87 259 -87 385 1 104 24 200 56 234 7 8 20 24
28 36 39 59 191 130 314 147 99 14 340 7 436 -12 14 -3 41 -8 60 -11 19 -3 49
-10 65 -14 17 -5 41 -11 55 -14 87 -16 328 -108 465 -179 102 -52 279 -157
283 -169 2 -4 8 -8 13 -8 9 0 67 -37 79 -51 31 -33 128 -65 191 -62 68 4 158
65 217 148 26 36 46 163 31 195 -4 8 -12 29 -18 45 -7 17 -45 65 -86 107 -63
65 -165 202 -165 222 0 4 -9 25 -19 49 -40 90 -63 161 -77 242 -3 17 -9 46
-14 65 -5 19 -12 62 -15 95 -4 33 -10 87 -14 121 -8 65 -6 316 2 374 3 19 8
55 12 80 3 25 8 59 10 75 2 17 4 30 5 30 1 0 3 11 6 24 36 196 180 550 259
637 5 7 25 32 44 55 101 129 263 207 421 203 41 -1 86 -4 100 -7 58 -12 87
-20 125 -34 22 -8 40 -14 40 -13 0 2 54 -18 100 -37 103 -44 266 -142 343
-207 53 -44 191 -184 232 -235 19 -23 43 -52 53 -63 9 -12 17 -24 17 -28 0 -4
9 -18 21 -31 28 -32 108 -168 148 -251 l32 -67 -48 -73 c-26 -40 -52 -82 -59
-93 -6 -11 -26 -45 -44 -75 -108 -179 -246 -460 -325 -665 -48 -123 -116 -342
-141 -456 -9 -40 -12 -54 -14 -54 -1 0 -3 -9 -5 -20 -1 -11 -6 -36 -9 -55 -4
-19 -9 -46 -11 -60 -2 -14 -6 -45 -10 -70 -15 -91 -16 -108 -20 -275 -2 -93 1
-199 6 -235 6 -36 12 -74 13 -85 30 -198 156 -408 301 -504 22 -14 42 -29 45
-32 3 -3 33 -16 67 -28 154 -55 318 -10 455 123 98 95 221 291 272 431 9 28
22 59 26 70 5 11 19 52 31 90 11 39 28 90 36 115 8 25 16 53 18 63 2 10 13 50
23 90 21 77 48 200 57 257 3 19 10 58 15 85 5 28 12 75 15 105 4 30 8 71 11
90 22 176 22 613 -1 731 -3 13 -7 41 -10 64 -6 38 -21 127 -29 171 -2 11 -12
51 -21 88 -9 37 -18 75 -20 84 -2 9 -4 18 -5 20 -11 13 6 56 35 88 5 6 17 22
25 34 8 12 20 28 25 34 6 6 24 29 40 51 51 69 199 260 205 265 3 3 44 52 90
110 47 58 93 112 102 121 10 9 18 19 18 22 0 5 45 59 80 96 48 52 123 156 141
196 46 105 3 263 -89 325 -95 63 -155 75 -241 49 -41 -12 -125 -83 -171 -144
-19 -25 -113 -138 -121 -145 -3 -3 -67 -81 -143 -175 -76 -93 -147 -180 -157
-193 -10 -12 -19 -24 -19 -27 0 -3 -9 -15 -19 -27 -11 -13 -28 -34 -39 -48
-23 -29 -25 -28 -97 80 -267 398 -745 752 -1175 871 -25 7 -52 14 -60 15 -8 1
-47 9 -87 17 -62 12 -325 21 -335 12z m1547 -2512 c-3 -98 -7 -189 -9 -203 -2
-14 -7 -48 -10 -75 -15 -111 -57 -328 -76 -390 -5 -16 -11 -42 -14 -56 -2 -14
-12 -48 -21 -75 -9 -27 -18 -56 -20 -64 -17 -76 -108 -315 -125 -325 -15 -9
-33 106 -34 220 0 110 10 270 18 296 3 8 7 32 10 54 6 44 13 78 20 103 3 9 7
28 10 42 16 96 104 349 177 510 57 127 64 140 72 140 4 0 6 -80 2 -177z"/>
</g>
</svg>
